<svg xmlns="http://www.w3.org/2000/svg" width="1215.02" height="1147.01" viewBox="0 0 1215.02 1147.01"><path d="M548.81,26.37C712.22-23,889.62,1.17,994.93,63.86c174.73,90.29,231.5,274.06,207.56,437.31a416.38,416.38,0,0,0-20.77-60.37c-4.41-10.07-9-19.9-13.76-29.54.17-17.78-1.16-33.14-4.16-44.87C1126,212.45,948.59,54.53,756.84,69.08c-61.4-18.47-123.29-35.74-185.78-41C563.61,27.39,556.21,26.88,548.81,26.37Z" fill="#c1fe70"/><path d="M756.84,69.08c191.75-14.55,369.19,143.37,407,297.31,3,11.73,4.33,27.09,4.16,44.87-50.59-99.92-126-167-224.19-201.45-.89-1.95-1.58-3.95-2.46-5.9-25-54.13-63.8-99.09-122.43-116.35C798.32,81.58,777.65,75.2,756.84,69.08Z" fill="#84fedd"/><path d="M818.88,87.56c58.63,17.26,97.39,62.22,122.43,116.35.88,2,1.57,4,2.46,5.9-42-14.75-88.13-23.63-138.57-26.12-49.41-2.58-97.22,3.2-143.68,13.62-44.24-18.74-92.95-32.95-141.59-42.26,3.13-1.52,6.13-3.11,9.39-4.57,35.91-15.59,71.89-31.32,107.09-48.61A329.43,329.43,0,0,1,756.84,69.08C777.65,75.2,798.32,81.58,818.88,87.56Z" fill="#8ccec0"/><path d="M943.77,209.81c98.2,34.4,173.6,101.53,224.19,201.45-.5,74.31-25.52,192.77-63,285.19q-23.36,23.65-48.36,45-2.08-15.78-4.36-31.17c-9.18-64.21-25.93-124.16-57-175.74C1007.19,423.57,991.4,315.09,943.77,209.81Z" fill="#35c7ff"/><path d="M571.06,28.1c62.49,5.24,124.38,22.51,185.78,41a329.43,329.43,0,0,0-120.43,32.79c-35.2,17.29-71.18,33-107.09,48.61-3.26,1.46-6.26,3.05-9.39,4.57-62.86-12-125.92-15.57-180.27-9.5,9.89-9.33,20-18.39,30.72-26.92,54-43.12,115.14-73.25,178.43-92.26C556.21,26.88,563.61,27.39,571.06,28.1Z" fill="#7186ff"/><path d="M805.2,183.69c50.44,2.49,96.54,11.37,138.57,26.12,47.63,105.28,63.42,213.76,51.54,324.69-26.63-44.44-63.79-82.83-116.13-112.37-.44-.09-.69-.22-1.14-.31-15.27-38.65-36.14-76.34-62.23-113.17-32.46-45.71-88.52-83.32-154.29-111.34C708,186.89,755.79,181.11,805.2,183.69Z" fill="#52f2b3"/><path d="M1168,411.26c4.81,9.64,9.35,19.47,13.76,29.54a416.38,416.38,0,0,1,20.77,60.37,484.6,484.6,0,0,1-25.87,100.45c-7.95,20.63-21.75,40-36.28,56.83-11.38,13.21-23.18,25.71-35.36,38C1142.44,604,1167.46,485.57,1168,411.26Z" fill="#6f37ff"/><path d="M548.81,26.37c-63.29,19-124.39,49.14-178.43,92.26-10.76,8.53-20.83,17.59-30.72,26.92-41,4.48-77.25,14.39-104.53,30.36-14.34,8.5-28.77,17.76-41,28.9-14.57,13.07-29.22,26.28-43.73,39.55,8.64-18.63,18.49-36.75,28.61-55.38C262.59,35.56,401.87,16.59,548.81,26.37Z" fill="#fd77f9"/><path d="M661.52,197.31c65.77,28,121.83,65.63,154.29,111.34,26.09,36.83,47,74.52,62.23,113.17-22-7.45-43.62-16.61-66.26-21.79-7.35-1.79-14.71-3.25-22.08-4.72C706.13,303,600.38,263.65,481.33,259c14.85-7.07,30.27-13.67,46.75-19.85C571.58,222.56,616,207.59,661.52,197.31Z" fill="#b2fae5"/><path d="M519.93,155.05c48.64,9.31,97.35,23.52,141.59,42.26-45.55,10.28-89.94,25.25-133.44,41.86C511.6,245.35,496.18,252,481.33,259c-1.92-.08-3.77-.29-5.56-.3a600.91,600.91,0,0,0-99.11,5.73A422.17,422.17,0,0,1,519.93,155.05Z" fill="#94d6c2"/><path d="M339.66,145.55c54.35-6.07,117.41-2.46,180.27,9.5a422.17,422.17,0,0,0-143.27,109.4A659.12,659.12,0,0,0,240,298.33C260.53,237.06,295.59,187.19,339.66,145.55Z" fill="#4af"/><path d="M481.33,259c119.05,4.63,224.8,44,308.37,136.29-201.14-38.9-386.14,36.25-509.35,173C277.9,420.84,347.11,322.72,481.33,259Z" fill="#e9f7f6"/><path d="M878,421.82c.45.09.7.22,1.14.31,52.34,29.54,89.5,67.93,116.13,112.37a730.38,730.38,0,0,1-14.73,86.77c-4.11,17.23-10.63,37-22.73,48.87-27,26.38-54,52.88-81.15,79.19,3-10.52,5.54-21,7.79-31.29,10.67-31.16,20-62.57,22.82-94.32C913.64,552.46,903.41,485.71,878,421.82Z" fill="#97f7d2"/><path d="M1176.62,601.62a484.6,484.6,0,0,0,25.87-100.45c30.14,114.47,5.11,226.42-66.48,328.27C1085,902,1035.47,978.68,955.78,1025a498.35,498.35,0,0,1-93,42.39c65.06-46.79,121.59-103,167.81-168.65,15.7-22.52,26.88-51.94,29.33-79.19a281.11,281.11,0,0,0,.66-32c3.52-6.67,6.91-13.41,10-20.48,12.23-20.38,23.9-44.49,34.44-70.68,12.18-12.29,24-24.79,35.36-38C1154.87,641.61,1168.67,622.25,1176.62,601.62Z" fill="#fd4796"/><path d="M811.78,400c22.64,5.18,44.23,14.34,66.26,21.79,25.37,63.89,35.6,130.64,29.27,201.9-2.82,31.75-12.15,63.16-22.82,94.32,21.38-100,4-194.59-67.4-289.73-8.89-11.73-18.06-22.65-27.39-33C797.07,396.78,804.43,398.24,811.78,400Z" fill="#97f7ff"/><path d="M789.7,395.31c9.33,10.35,18.5,21.27,27.39,33C888.46,523.45,905.87,618,884.49,718c-4.17,12-8.34,24-12.63,35.92-44.92,43.46-90.44,86.24-137.92,126.65a144.55,144.55,0,0,1-24.36,16.29C562,905.13,435.47,829.1,328.77,694.63a649.91,649.91,0,0,1-43-61,529.12,529.12,0,0,1-5.42-65.39C403.56,431.56,588.56,356.41,789.7,395.31Z" fill="#fff8e7"/><path d="M475.77,258.72c1.79,0,3.64.22,5.56.3-134.22,63.7-203.43,161.82-201,309.26-6.42,7.18-12.71,14.44-18.82,22-1.9-3.65-3.62-7.36-5.4-10.94a.15.15,0,0,0-.05-.2,399.68,399.68,0,0,1,29.08-160.74c22.56-56,52.47-108.66,91.5-153.9A600.91,600.91,0,0,1,475.77,258.72Z" fill="#b4eaea"/><path d="M235.13,175.91c27.28-16,63.49-25.88,104.53-30.36-44.07,41.64-79.13,91.51-99.71,152.78-6.1,2.16-12.13,4.2-18,6.62a303.85,303.85,0,0,0-103.44,68.34c.44-11.46,1.33-22.83,2.8-34.37,4.52-34.55,15.41-64.94,29.16-94.56,14.51-13.27,29.16-26.48,43.73-39.55C206.36,193.67,220.79,184.41,235.13,175.91Z" fill="#71fcff"/><path d="M995.31,534.5c31,51.58,47.77,111.53,57,175.74q2.28,15.39,4.36,31.17A738.65,738.65,0,0,1,868.77,857.55c-16.26,7-32.22,12.77-48,17.89,3.82-6.34,8-12.66,11.61-19.26,9-18.93,19.35-37.42,27-56.92a493.86,493.86,0,0,0,17.27-49.93c27.11-26.31,54.17-52.81,81.15-79.19,12.1-11.84,18.62-31.64,22.73-48.87A730.38,730.38,0,0,0,995.31,534.5Z" fill="#4fdecf"/><path d="M1056.62,741.41q25-21.3,48.36-45c-10.54,26.19-22.21,50.3-34.44,70.68-3.09,7.07-6.48,13.81-10,20.48C1060,772.22,1058.59,756.8,1056.62,741.41Z" fill="#fd80aa"/><path d="M240,298.33a659.12,659.12,0,0,1,136.71-33.88c-39,45.24-68.94,97.95-91.5,153.9a399.68,399.68,0,0,0-29.08,160.74C217.63,496,205.94,405.82,237.44,305.24,238.24,302.91,239.15,300.66,240,298.33Z" fill="#b4eaea"/><path d="M240,298.33c-.8,2.33-1.71,4.58-2.51,6.91C205.94,405.82,217.63,496,256.08,579.09a.15.15,0,0,1,.05.2c.24,5.49.47,11,.91,16.42a604,604,0,0,0-48.27,70.85c-60.71-86.33-95.23-188.42-90.3-293.27A303.85,303.85,0,0,1,221.91,305C227.82,302.53,233.85,300.49,240,298.33Z" fill="#9ff297"/><path d="M1056.62,741.41c2,15.39,3.42,30.81,3.92,46.2-53.67,98.09-167.72,162.85-304.23,198.14a249.84,249.84,0,0,1-30.16,5.78c35.6-32.51,67.48-71.3,94.66-116.09,15.74-5.12,31.7-10.94,48-17.89A738.65,738.65,0,0,0,1056.62,741.41Z" fill="#87abff"/><path d="M756.31,985.75c136.51-35.29,250.56-100,304.23-198.14a281.11,281.11,0,0,1-.66,32c-2.45,27.25-13.63,56.67-29.33,79.19-46.22,65.65-102.75,121.86-167.81,168.65-87.68,29.43-173.8,28.52-247.07-.72,39.56-18.94,76.61-44.31,110.48-75.17A249.84,249.84,0,0,0,756.31,985.75Z" fill="#c36aff"/><path d="M871.86,754C876.15,742,880.32,730,884.49,718c-2.25,10.3-4.76,20.77-7.79,31.29C875.17,750.92,873.51,752.44,871.86,754Z" fill="#97f7ff"/><path d="M84.38,308.32c21.07-22.17,43.38-43.33,66.05-64-13.75,29.62-24.64,60-29.16,94.56-1.47,11.54-2.36,22.91-2.8,34.37C81,410.75,52.08,458,30.28,512.61,27,520.69,24.09,528.85,21.41,537c-.05-2-.1-4,0-5.87C22,476,40.08,420.84,53.61,366.73,58.76,345.85,69.71,323.94,84.38,308.32Z" fill="#f7e707"/><path d="M871.86,754c1.65-1.52,3.31-3,4.84-4.63a493.86,493.86,0,0,1-17.27,49.93c-7.66,19.5-18,38-27,56.92-3.64,6.6-7.79,12.92-11.61,19.26-10.95,3.54-21.88,6.77-32.54,9.5,10.86-14.64,21.44-30.25,32.07-47.14,8.86-14.28,17.77-28,27.94-41.44,2.57-3.46,5.26-6.85,8.14-10.29,4.08-4.74,7.22-8.05,9.24-14.08C867.49,766,869.83,760,871.86,754Z" fill="#cddfca"/><path d="M871.86,754c-2.46,2.38-2.61,8-5,10.88-3.09,3.82-6.68,7.36-9.77,11.18a177.55,177.55,0,0,0-16.46,23.9c-6.88,12.45-12.69,25.65-20.26,37.88-10.63,16.89-21.21,32.5-32.07,47.14a429.42,429.42,0,0,1-78.69,12,144.55,144.55,0,0,0,24.36-16.29C781.42,840.2,826.94,797.42,871.86,754Z" fill="#eee6c2"/><path d="M866.83,764.84c2.42-2.89,2.57-8.5,5-10.88-2,6-4.37,12-6.2,18-2,6-5.16,9.34-9.24,14.08-2.88,3.44-5.57,6.83-8.14,10.29-10.17,13.4-19.08,27.16-27.94,41.44,7.57-12.23,13.38-25.43,20.26-37.88A177.55,177.55,0,0,1,857.06,776C860.15,772.2,863.74,768.66,866.83,764.84Z" fill="#eee6c2"/><path d="M30.28,512.61C52.08,458,81,410.75,118.47,373.29c-4.93,104.85,29.59,206.94,90.3,293.27a595.32,595.32,0,0,0-39,79.85c-17.71,44.51-21.21,89-15.8,132.82C54.07,790.45,20.84,669.73,21.41,537,24.09,528.85,27,520.69,30.28,512.61Z" fill="#fbb83a"/><path d="M261.53,590.23c6.11-7.51,12.4-14.77,18.82-22a529.12,529.12,0,0,0,5.42,65.39C276.85,619.33,268.77,605,261.53,590.23Z" fill="#fdedfd"/><path d="M788.27,884.94c10.66-2.73,21.59-6,32.54-9.5-27.18,44.79-59.06,83.58-94.66,116.09a273.1,273.1,0,0,1-55.35,2.26C713,970.3,751.38,934.28,788.27,884.94Z" fill="#c3b0cf"/><path d="M256.13,579.29c1.78,3.58,3.5,7.29,5.4,10.94-1.54,1.91-3,3.7-4.49,5.48C256.6,590.27,256.37,584.78,256.13,579.29Z" fill="#9ff297"/><path d="M257,595.71c1.47-1.78,2.95-3.57,4.49-5.48,7.24,14.72,15.32,29.1,24.24,43.44.15.9.19,1.73.27,2.76C294.45,694,310.83,747,335.11,796c-3.48-2.57-6.95-5.47-10.37-8.16C285.57,730.25,262.13,664.34,257,595.71Z" fill="#fdd090"/><path d="M286,636.43c-.08-1-.12-1.86-.27-2.76a649.91,649.91,0,0,0,43,61C435.47,829.1,562,905.13,709.58,896.9c-36.64,19.59-80.09,21.6-123,7.32-60.45-19.89-120.25-41.85-180.4-62.87a575.21,575.21,0,0,1-71-45.4C310.83,747,294.45,694,286,636.43Z" fill="#efd1d1"/><path d="M709.58,896.9a429.42,429.42,0,0,0,78.69-12C751.38,934.28,713,970.3,670.8,993.79c-73.32-4.57-140.63-37.5-204.31-74.61-47.8-28-88.41-63.11-120.77-103.07-3.64-6.73-7.16-13.38-10.61-20.16a575.21,575.21,0,0,0,71,45.4c60.15,21,120,43,180.4,62.87C629.49,918.5,672.94,916.49,709.58,896.9Z" fill="#d9b0cf"/><path d="M208.77,666.56A604,604,0,0,1,257,595.71c5.09,68.63,28.53,134.54,67.7,192.08A571.5,571.5,0,0,1,208.77,666.56Z" fill="#fdd090"/><path d="M169.75,746.41a595.32,595.32,0,0,1,39-79.85,571.5,571.5,0,0,0,116,121.23c6.6,9.65,13.47,19.13,21,28.32,44.44,80.27,111.75,149.6,203.46,211.45-63.31,3.07-135.54-11.78-220.77-42.43-47-17-91.21-45-132.79-73.31A426.54,426.54,0,0,1,154,879.23C148.54,835.45,152,790.92,169.75,746.41Z" fill="#fb906b"/><path d="M324.74,787.79c3.42,2.69,6.89,5.59,10.37,8.16,3.45,6.78,7,13.43,10.61,20.16C338.21,806.92,331.34,797.44,324.74,787.79Z" fill="#e8af81"/><path d="M862.74,1067.42c-9.87,7.23-20,14.12-30.41,20.75-68.49,44.41-147.83,54.88-227,58.29-103.92,4.37-203.81-17.79-302-53.46a253.69,253.69,0,0,1-32.18-14.84A416.17,416.17,0,0,0,346,1100.33c94.78,18.69,187.39,5.79,269.63-33.63C688.94,1095.94,775.06,1096.85,862.74,1067.42Z" fill="#a792ff"/><path d="M670.8,993.79a273.1,273.1,0,0,0,55.35-2.26c-33.87,30.86-70.92,56.23-110.48,75.17-4.66-1.92-9.39-3.72-13.91-5.89-18.52-10.87-35.81-21.88-52.58-33.25C593.53,1025.39,633.61,1014.37,670.8,993.79Z" fill="#fb906b"/><path d="M345.72,816.11c32.36,40,73,75.06,120.77,103.07,63.68,37.11,131,70,204.31,74.61-37.19,20.58-77.27,31.6-121.62,33.77C457.47,965.71,390.16,896.38,345.72,816.11Z" fill="#fb90c8"/><path d="M21.41,537C20.84,669.73,54.07,790.45,154,879.23c3.47,28.07,10.65,55.93,20.47,83.13,17.73,49.6,49.26,89.59,96.24,115.53C63.3,994.28-50,753.63,21.41,537Z" fill="#fda47f"/><path d="M601.76,1060.81c4.52,2.17,9.25,4,13.91,5.89C533.43,1106.12,440.82,1119,346,1100.33a416.17,416.17,0,0,1-74.88-22.17l-.5-.27c-47-25.94-78.51-65.93-96.24-115.53-9.82-27.2-17-55.06-20.47-83.13a426.54,426.54,0,0,0,41.67,32.59c41.58,28.32,85.79,56.3,132.79,73.31,85.23,30.65,157.46,45.5,220.77,42.43C566,1038.93,583.24,1049.94,601.76,1060.81Z" fill="#c46a90"/></svg>