<svg xmlns="http://www.w3.org/2000/svg" width="383.82" height="363.24" viewBox="0 0 383.82 363.24"><path d="M.19,175.93c-1.18-18.74,5.56-34.7,17.38-47.7C35.38,108.64,54,89.79,80.77,81.67c4.54-1.38,9.21-7.53,10.84-12.46,11.18-33.8,37.76-51.61,67.33-66.52A19.2,19.2,0,0,1,166.5.34c32-1.24,63.61.12,92.3,17a19.83,19.83,0,0,0,1.65,1.11c16,7.28,19.76,27.36,37.69,33.8,15.24,5.48,29.2,15.13,42.9,24.18,41.57,27.48,55.62,84,29.75,128.34-5.8,9.93-15.16,18.33-24.35,25.57-8.09,6.37-11.5,13.06-12.18,23.27-1.88,27.94-10.06,54.61-32.16,72.68-38.9,31.81-85.78,50.19-133.82,25.41-26.9-13.88-53.22-26.59-67.23-55.87-2.55-5.33-11-9-17.43-11.11-33.2-11.07-57.55-32-73.15-63.21C3.24,207.05-1,191.88.19,175.93Zm318.5,72.72c-7,1.12-12.2,1.44-17.08,2.81-28.75,8.07-57.11,10.83-85.35-2.68-3.53-1.7-10,.48-14.06,2.76-4.45,2.5-7.87,7-11.39,11C174.9,280.38,155,289.1,131.14,289.63c-4.87.1-9.71,1.79-18.07,3.44,6.81,8.56,10.59,15.79,16.48,20.21,11.56,8.67,23.69,17.06,36.67,23.31C212.1,358.68,263.94,348.13,298,310,313,293.19,319.35,272.93,318.69,248.65ZM83.38,94.88C59.73,100.73,43,114.49,27.83,131.82c-17.51,20.07-20.72,42.41-13.57,66.93a105,105,0,0,0,9.89,23.85c15.79,26.8,38,44.76,71.53,50.26,4.72-33.65,12.25-65,32.73-90.92-12.29-13.12-26.14-23.12-33.12-36.66C88.07,131.28,87.52,113.84,83.38,94.88ZM267.17,47.21c-10.05-19.41-21.61-25.45-39.91-23.66C222.37,24,217,22.3,212.2,20.66c-27.11-9.19-53.46-10.85-76.87,9-15.5,13.13-31,26.73-33.4,48.52l80.35,18.53C202.88,72.33,234.22,59.79,267.17,47.21ZM334,219.8c17.27-8.46,29.36-19.61,33.25-34.71,13.88-54-9.38-94.37-63.64-108.58-2,14.73-2.38,30-6.47,44.19s-11.87,27.29-19,43c3.72,4.23,8.29,10.77,14.17,15.78,7.51,6.4,16.88,10.72,23.95,17.5C323.17,203.56,328.19,212.15,334,219.8ZM196.77,100.65c8.69,13.18,14.82,23.19,21.73,32.62,2.9,4,7,7.84,11.39,9.74,7.23,3.13,15.36,4.12,22.77,6.92,7.6,2.88,12.56,0,17.39-5.39,15.24-17,19.56-37.4,17-59.24-1.46-12.57-10.61-22.15-19.54-21.12C238.83,67.52,215.75,81.67,196.77,100.65Zm-3.35,138.57C186,226,179.7,214.5,173.15,203.11c-9-15.68-32.54-17.09-43-2.13-10.82,15.45-17.75,32.7-19.34,51.66-.63,7.59-.1,15.27-.1,23.73C147.87,281.12,173.42,267,193.42,239.22ZM317.19,228c-.85-14.12-8.68-22.28-19.44-26.83a96.33,96.33,0,0,1-24.85-15c-12.76-10.58-41.89-2.34-45.34,11.74-2.79,11.39-4.47,23.06-6.58,34.32C247.37,249.86,288.42,248.13,317.19,228ZM166,112c-18.5-15.68-41.72-17.93-66.07-16.35-4.35,31.06,10.21,58.63,36,71.15,9.74,4.73,23.93-3.06,25.37-14.18C163,139.72,164.29,126.77,166,112Zm24.3,70.25c17.2-.41,22.92-4.18,22.62-12.42-.44-12.43-8.95-15.77-23.27-9.16-6.29,2.9-13.17,6.7-9.73,14.46C181.7,179.23,188.48,181.12,190.27,182.26ZM184,118.55c-7.55,8.79-12.24,17.62-6.28,30.6l25.52-10.92C201.68,126.23,194.42,121.84,184,118.55Zm30.46,81.54-4.25-3.72c-7.41,1.78-16.38-2.44-23.51,8.5C191.88,211,197,217,205.07,226.44,209.22,214.75,211.82,207.42,214.43,200.09Zm32-37.72h-18c0,1.87-.79,4.53.15,5.47C234.21,173.5,238.51,169.79,246.4,162.37Z" fill="#0d000d"/></svg>