<svg xmlns="http://www.w3.org/2000/svg" width="517.78" height="188.53" viewBox="0 0 517.78 188.53"><path d="M251.27,78.37a5.08,5.08,0,0,1-3.85-1.4,5.47,5.47,0,0,1-1.32-3.92V36.2c0-3.49,1.74-5.24,5.24-5.24h16.13q7.84,0,12.09,3.95t4.25,11q0,7-4.25,11t-12.09,4H256.39V73.05a5.51,5.51,0,0,1-1.3,3.92A5,5,0,0,1,251.27,78.37Zm5.12-25.43h9.36q8.16,0,8.17-7T265.75,39h-9.36Z" fill="#a992ff"/><path d="M304.46,78.5a21.92,21.92,0,0,1-9.93-2.09,15,15,0,0,1-6.37-5.91,17.52,17.52,0,0,1-2.23-9,17.67,17.67,0,0,1,2.16-8.86,15.65,15.65,0,0,1,5.91-6,17,17,0,0,1,8.66-2.16q7.11,0,11.29,4.49t4.18,12.11c0,1.69-1,2.53-3.12,2.53H295.49a8.19,8.19,0,0,0,2.82,5.61A10.24,10.24,0,0,0,304.66,71a20.94,20.94,0,0,0,3.61-.37,14.24,14.24,0,0,0,3.89-1.29,3.89,3.89,0,0,1,3.25-.37,3.22,3.22,0,0,1,1.83,1.89,4,4,0,0,1,0,2.76A4.36,4.36,0,0,1,315,76a19.42,19.42,0,0,1-5.14,1.9A24.86,24.86,0,0,1,304.46,78.5Zm-1.4-27.36a7,7,0,0,0-5.14,1.93,8.94,8.94,0,0,0-2.43,5.38h14.34Q309.44,51.15,303.06,51.14Z" fill="#c3ff6f"/><path d="M339.64,78.5a19,19,0,0,1-9.12-2.09,14.75,14.75,0,0,1-6-5.91,18.35,18.35,0,0,1-2.13-9.07,18.14,18.14,0,0,1,2.13-9,14.43,14.43,0,0,1,6-5.88,21.24,21.24,0,0,1,18.25,0,14.71,14.71,0,0,1,6.05,5.88,18,18,0,0,1,2.15,9,18.25,18.25,0,0,1-2.15,9.07,15,15,0,0,1-6.05,5.91A19,19,0,0,1,339.64,78.5Zm0-7.5a6.61,6.61,0,0,0,5.22-2.33q2-2.33,2-7.24t-2-7.13A6.64,6.64,0,0,0,339.64,52a6.51,6.51,0,0,0-5.17,2.29q-2,2.28-2,7.13t2,7.24A6.48,6.48,0,0,0,339.64,71Z" fill="#ffa47f"/><path d="M368.13,90.32q-5.06,0-5.05-5.12V49.68q0-5,4.91-5t5,5v.2A10.14,10.14,0,0,1,377.09,46a12.77,12.77,0,0,1,6.11-1.46,13.22,13.22,0,0,1,12.48,7.9,20.9,20.9,0,0,1,1.79,9,21.12,21.12,0,0,1-1.79,9.07,13.88,13.88,0,0,1-5,5.91,13.46,13.46,0,0,1-7.47,2.09,12.69,12.69,0,0,1-5.94-1.4,10.36,10.36,0,0,1-4.15-3.71V85.2Q373.11,90.32,368.13,90.32ZM380.21,71a6.5,6.5,0,0,0,5.18-2.33q2-2.33,2-7.24t-2-7.13a7.07,7.07,0,0,0-10.42,0q-2,2.28-2,7.13t2,7.24A6.55,6.55,0,0,0,380.21,71Z" fill="#87ffdd"/><path d="M415.33,78.5q-11.74,0-11.75-13.08V35.47c0-3.4,1.68-5.11,5.05-5.11s5,1.71,5,5.11V65a5.87,5.87,0,0,0,1.16,4,3.94,3.94,0,0,0,3.09,1.29,7,7,0,0,0,1-.07,8,8,0,0,1,1-.06,1.47,1.47,0,0,1,1.49.66,6.75,6.75,0,0,1,.43,3q0,3.86-3.25,4.38L417,78.4A16,16,0,0,1,415.33,78.5Z" fill="#ff77f9"/><path d="M442.29,78.5a21.92,21.92,0,0,1-9.93-2.09A15.07,15.07,0,0,1,426,70.5a17.61,17.61,0,0,1-2.22-9,17.67,17.67,0,0,1,2.15-8.86,15.65,15.65,0,0,1,5.91-6,17.06,17.06,0,0,1,8.67-2.16c4.73,0,8.5,1.5,11.28,4.49S456,56,456,61.1c0,1.69-1,2.53-3.12,2.53H433.33a8.11,8.11,0,0,0,2.82,5.61A10.21,10.21,0,0,0,442.49,71a21,21,0,0,0,3.62-.37A14.17,14.17,0,0,0,450,69.34a3.89,3.89,0,0,1,3.25-.37,3.22,3.22,0,0,1,1.83,1.89,4,4,0,0,1,0,2.76A4.33,4.33,0,0,1,452.85,76a19.49,19.49,0,0,1-5.15,1.9A24.79,24.79,0,0,1,442.29,78.5ZM440.9,51.14a7.05,7.05,0,0,0-5.15,1.93,8.93,8.93,0,0,0-2.42,5.38h14.34Q447.27,51.15,440.9,51.14Z" fill="#fd4796"/><path d="M250.88,158a4.55,4.55,0,0,1-3.46-1.26,5,5,0,0,1-1.19-3.52V114.82a4.76,4.76,0,0,1,1.26-3.56,5,5,0,0,1,3.59-1.22,5.52,5.52,0,0,1,3.15.79,7.61,7.61,0,0,1,2.16,2.59l14.21,26,14.2-26a7.61,7.61,0,0,1,2.16-2.59,5.38,5.38,0,0,1,3.09-.79,4.73,4.73,0,0,1,3.48,1.22,4.83,4.83,0,0,1,1.23,3.56v38.44q0,4.78-4.64,4.78t-4.72-4.78V128.89l-10.89,19.59a6.47,6.47,0,0,1-1.69,1.89,4,4,0,0,1-2.36.63,4.18,4.18,0,0,1-2.39-.63,5.67,5.67,0,0,1-1.66-1.89l-10.89-19.39v24.17Q255.52,158,250.88,158Z" fill="#fd4796"/><path d="M320.32,158.17a21.84,21.84,0,0,1-9.92-2.09,15,15,0,0,1-6.38-5.91,19.3,19.3,0,0,1-.06-17.86,15.62,15.62,0,0,1,5.91-6,17,17,0,0,1,8.66-2.16q7.11,0,11.29,4.48T334,140.78q0,2.52-3.12,2.52H311.36a8.11,8.11,0,0,0,2.82,5.61,10.21,10.21,0,0,0,6.34,1.76,20,20,0,0,0,3.62-.37A14.24,14.24,0,0,0,328,149a3.93,3.93,0,0,1,3.25-.37,3.26,3.26,0,0,1,1.83,1.9,3.94,3.94,0,0,1,0,2.75,4.44,4.44,0,0,1-2.23,2.36,19.76,19.76,0,0,1-5.14,1.89A25,25,0,0,1,320.32,158.17Zm-1.39-27.35a7.06,7.06,0,0,0-5.15,1.92,9,9,0,0,0-2.42,5.38H325.7Q325.31,130.82,318.93,130.82Z" fill="#a992ff"/><path d="M352.53,158.17a13.41,13.41,0,0,1-7.47-2.09,13.86,13.86,0,0,1-5-5.91,23.75,23.75,0,0,1,0-18.09,13.72,13.72,0,0,1,5-5.84,13.47,13.47,0,0,1,7.47-2.06,12.89,12.89,0,0,1,6,1.39,9.91,9.91,0,0,1,4.12,3.72V115.15q0-5.12,5-5.11t5,5.11v37.78q0,5.12-5,5.11t-5-5.11v-.2a9.4,9.4,0,0,1-4.08,4A12.81,12.81,0,0,1,352.53,158.17Zm3-7.5a6.61,6.61,0,0,0,5.22-2.32c1.35-1.55,2-4,2-7.24s-.67-5.61-2-7.14a6.65,6.65,0,0,0-5.22-2.29,6.54,6.54,0,0,0-5.18,2.29c-1.32,1.53-2,3.91-2,7.14s.67,5.69,2,7.24A6.51,6.51,0,0,0,355.51,150.67Z" fill="#ff77f9"/><path d="M385.39,118.87a6.35,6.35,0,0,1-4.28-1.3,4.59,4.59,0,0,1-1.5-3.68,4.67,4.67,0,0,1,1.5-3.75,6.29,6.29,0,0,1,4.28-1.3q5.72,0,5.71,5T385.39,118.87Zm0,39.1a4.77,4.77,0,0,1-3.75-1.43,5.77,5.77,0,0,1-1.3-4V129.82c0-3.67,1.69-5.51,5.05-5.51a4.72,4.72,0,0,1,3.68,1.43,5.83,5.83,0,0,1,1.3,4.08v22.71a5.86,5.86,0,0,1-1.26,4A4.67,4.67,0,0,1,385.39,158Z" fill="#c3ff6f"/><path d="M414,158.17a19.6,19.6,0,0,1-9.27-2.09,14.49,14.49,0,0,1-6.07-5.94,18.52,18.52,0,0,1-2.13-9.1,18.16,18.16,0,0,1,2.13-9,14.25,14.25,0,0,1,6.07-5.81,20.07,20.07,0,0,1,9.27-2,20.85,20.85,0,0,1,4.41.5,16.49,16.49,0,0,1,4.55,1.69,3.57,3.57,0,0,1,2.06,2.22,4.27,4.27,0,0,1-.17,2.82,3.78,3.78,0,0,1-1.79,2,3.06,3.06,0,0,1-2.89-.23,11.12,11.12,0,0,0-5.18-1.4,7.68,7.68,0,0,0-6.07,2.43q-2.16,2.41-2.16,6.87a10.14,10.14,0,0,0,2.16,6.87,7.59,7.59,0,0,0,6.07,2.49,11.38,11.38,0,0,0,2.52-.3,10.07,10.07,0,0,0,2.66-1,3,3,0,0,1,2.89-.2,3.52,3.52,0,0,1,1.69,2,4.75,4.75,0,0,1,.07,2.82,3.58,3.58,0,0,1-2,2.26,20,20,0,0,1-8.83,2.12Z" fill="#ffa47f"/><path d="M434.92,118.87a6.35,6.35,0,0,1-4.28-1.3,4.59,4.59,0,0,1-1.5-3.68,4.67,4.67,0,0,1,1.5-3.75,6.29,6.29,0,0,1,4.28-1.3q5.71,0,5.71,5T434.92,118.87Zm0,39.1a4.77,4.77,0,0,1-3.75-1.43,5.73,5.73,0,0,1-1.3-4V129.82c0-3.67,1.69-5.51,5.05-5.51a4.72,4.72,0,0,1,3.68,1.43,5.83,5.83,0,0,1,1.3,4.08v22.71a5.86,5.86,0,0,1-1.26,4A4.67,4.67,0,0,1,434.92,158Z" fill="#f9e800"/><path d="M452.71,158q-5,0-5-5.11V129.36c0-3.37,1.63-5.05,4.91-5.05s4.91,1.68,4.91,5.05v.26a10.93,10.93,0,0,1,4.45-4.05,13.76,13.76,0,0,1,6.24-1.39q5.77,0,8.63,3.35t2.86,10.32v15.08q0,5.12-5.05,5.11a4.88,4.88,0,0,1-3.68-1.33,5.16,5.16,0,0,1-1.3-3.78V138.32c0-2.26-.42-3.88-1.26-4.88a4.58,4.58,0,0,0-3.72-1.49,6.69,6.69,0,0,0-5.08,2,7.4,7.4,0,0,0-1.89,5.31v13.68Q457.69,158,452.71,158Z" fill="#87ffdd"/><path d="M504.1,158.17a21.84,21.84,0,0,1-9.92-2.09,14.91,14.91,0,0,1-6.38-5.91,17.56,17.56,0,0,1-2.22-9,17.8,17.8,0,0,1,2.15-8.86,15.62,15.62,0,0,1,5.91-6,17.06,17.06,0,0,1,8.67-2.16q7.1,0,11.29,4.48t4.18,12.12q0,2.52-3.12,2.52H495.14a8.07,8.07,0,0,0,2.82,5.61,10.21,10.21,0,0,0,6.34,1.76,20.09,20.09,0,0,0,3.62-.37A14.17,14.17,0,0,0,511.8,149a4,4,0,0,1,3.26-.37,3.22,3.22,0,0,1,1.82,1.9,3.94,3.94,0,0,1,0,2.75,4.38,4.38,0,0,1-2.22,2.36,19.83,19.83,0,0,1-5.15,1.89A24.79,24.79,0,0,1,504.1,158.17Zm-1.39-27.35a7,7,0,0,0-5.15,1.92,9,9,0,0,0-2.42,5.38h14.34Q509.07,130.82,502.71,130.82Z" fill="#f9e800"/><path d="M169.2,43.78c19.54,19.06,29.87,45.77,29.23,65.36.86,31.44-20.48,53.59-45.18,62.86a67.86,67.86,0,0,0,6.85-7.58q1.6-2.08,3.07-4.21a28.89,28.89,0,0,0,6-4.05c18.63-17.18,27-54.23,10.17-79.95-2.16-10-4.53-20-8.63-29.18C170.2,45.93,169.7,44.86,169.2,43.78Z" fill="#c1fe70"/><path d="M179.3,76.21c16.85,25.72,8.46,62.77-10.17,80a28.89,28.89,0,0,1-6,4.05c10.07-14.8,13.65-30.55,10.87-46.95.21-.28.43-.53.64-.81,5.64-7.68,8.94-16.59,6.82-26.13C180.75,83,180.05,79.59,179.3,76.21Z" fill="#84fedd"/><path d="M181.5,86.32c2.12,9.54-1.18,18.45-6.82,26.13-.21.28-.43.53-.64.81a78,78,0,0,0-7-21.42,84.15,84.15,0,0,0-13-19.06,113.15,113.15,0,0,0-5-23.09c.45.32.91.61,1.36,1,5,3.82,9.95,7.64,15.09,11.23a52.84,52.84,0,0,1,13.9,14.33C180.05,79.59,180.75,83,181.5,86.32Z" fill="#8ccec0"/><path d="M174,113.26c2.78,16.4-.8,32.15-10.87,47-10.44,5.68-29,11.33-44.8,13.23q-5.12-1.44-10-3.3,2.05-1.5,4-3c8.28-6.25,15.38-13.22,20.2-21.55A98.32,98.32,0,0,0,174,113.26Z" fill="#35c7ff"/><path d="M170.67,47c4.1,9.16,6.47,19.15,8.63,29.18a52.84,52.84,0,0,0-13.9-14.33c-5.14-3.59-10.13-7.41-15.09-11.23-.45-.35-.91-.64-1.36-1a99.49,99.49,0,0,0-12.6-26c2.07.67,4.11,1.38,6.14,2.22A84.84,84.84,0,0,1,169.2,43.78C169.7,44.86,170.2,45.93,170.67,47Z" fill="#7186ff"/><path d="M167,91.84a78,78,0,0,1,7,21.42,98.32,98.32,0,0,1-41.47,32.31,49.67,49.67,0,0,0,6.76-24.95,1,1,0,0,1-.05-.18,86.27,86.27,0,0,0,11-17.46c3.89-8.08,4.83-18.83,3.67-30.2A84.15,84.15,0,0,1,167,91.84Z" fill="#52f2b3"/><path d="M163.17,160.21q-1.47,2.13-3.07,4.21a67.86,67.86,0,0,1-6.85,7.58,78.24,78.24,0,0,1-16.06,4.14,32.27,32.27,0,0,1-10.76-.69c-2.73-.57-5.39-1.26-8.06-2C134.21,171.54,152.73,165.89,163.17,160.21Z" fill="#6f37ff"/><path d="M169.2,43.78a84.84,84.84,0,0,0-26.71-17.85c-2-.84-4.07-1.55-6.14-2.22-3.8-5.4-8-9.7-12.33-12.28a39.77,39.77,0,0,0-7.22-3.51c-3-1-5.93-2-8.91-3.06,3.27-.23,6.57-.25,10-.28C145.79,4.42,159.21,22.46,169.2,43.78Z" fill="#fd77f9"/><path d="M154,72.78c1.16,11.37.22,22.12-3.67,30.2a86.27,86.27,0,0,1-11,17.46c-.66-3.66-1.05-7.39-2.07-11-.32-1.17-.68-2.31-1.05-3.46,6.46-18.83,3.8-36.68-4.75-53.7,2.14,1.53,4.25,3.18,6.39,5A155.32,155.32,0,0,1,154,72.78Z" fill="#b2fae5"/><path d="M149,49.69a113.15,113.15,0,0,1,5,23.09A155.32,155.32,0,0,0,137.8,57.33c-2.14-1.83-4.25-3.48-6.39-5-.14-.28-.25-.55-.39-.8a95.65,95.65,0,0,0-8.46-13.44A67.41,67.41,0,0,1,149,49.69Z" fill="#94d6c2"/><path d="M136.35,23.71a99.49,99.49,0,0,1,12.6,26,67.41,67.41,0,0,0-26.39-11.61,105.51,105.51,0,0,0-15.31-16.52A59.35,59.35,0,0,1,136.35,23.71Z" fill="#4af"/><path d="M131.41,52.32c8.55,17,11.21,34.87,4.75,53.7-10.1-31.16-34.92-51.25-63.58-57.94C93,36.35,112.12,38.45,131.41,52.32Z" fill="#e9f7f6"/><path d="M139.28,120.44a1,1,0,0,0,.05.18,49.67,49.67,0,0,1-6.76,24.95,116.27,116.27,0,0,1-13.29,4.64c-2.73.76-6,1.37-8.6.6-5.77-1.74-11.58-3.48-17.35-5.24,1.7-.39,3.36-.85,5-1.33a65.15,65.15,0,0,0,15-4.1A69.36,69.36,0,0,0,139.28,120.44Z" fill="#97f7d2"/><path d="M137.19,176.14A78.24,78.24,0,0,0,153.25,172c-13.7,13.06-31.3,18.21-51.1,16.06-14.1-1.53-28.66-2.54-41.31-10.11a80.51,80.51,0,0,1-13.13-9.75A114.13,114.13,0,0,0,84.3,178.66a27.56,27.56,0,0,0,13.35-2,45.52,45.52,0,0,0,4.53-2.38c1.2,0,2.41-.07,3.64-.18a80.4,80.4,0,0,0,12.55-.64c2.67.75,5.33,1.44,8.06,2A32.27,32.27,0,0,0,137.19,176.14Z" fill="#fd4796"/><path d="M137.21,109.48c1,3.57,1.41,7.3,2.07,11a69.36,69.36,0,0,1-26,19.7,65.15,65.15,0,0,1-15,4.1c15.65-4.74,27.55-14.49,35.35-31.83,1-2.15,1.78-4.28,2.5-6.39C136.53,107.17,136.89,108.31,137.21,109.48Z" fill="#97f7ff"/><path d="M136.16,106c-.72,2.11-1.54,4.24-2.5,6.39-7.8,17.34-19.7,27.09-35.35,31.83-2,.34-4,.69-6,1-9.55-2.93-19.06-6-28.39-9.52a24,24,0,0,1-4.16-2.15c-12.56-20-11.69-43.62-1.12-69A104.45,104.45,0,0,1,63.84,53.9a85.49,85.49,0,0,1,8.74-5.82C101.24,54.77,126.06,74.86,136.16,106Z" fill="#fff8e7"/><path d="M131,51.52c.14.25.25.52.39.8-19.29-13.87-38.38-16-58.83-4.24-1.5-.34-3-.66-4.53-.93.37-.55.75-1.08,1.12-1.61a0,0,0,0,0,0,0,63.91,63.91,0,0,1,24.75-8.35,87.75,87.75,0,0,1,28.62.91A95.65,95.65,0,0,1,131,51.52Z" fill="#b4eaea"/><path d="M124,11.43c4.34,2.58,8.53,6.88,12.33,12.28a59.35,59.35,0,0,0-29.1-2.15c-.77-.68-1.53-1.37-2.32-2a48.61,48.61,0,0,0-17.56-9.2c1.63-.82,3.29-1.58,5-2.27a51.26,51.26,0,0,1,15.5-3.22c3,1,6,2,8.91,3.06A39.77,39.77,0,0,1,124,11.43Z" fill="#71fcff"/><path d="M132.57,145.57c-4.82,8.33-11.92,15.3-20.2,21.55q-2,1.51-4,3a118,118,0,0,1-30.78-17.32c-2.23-1.74-4.28-3.52-6.21-5.33,1.18,0,2.39.14,3.6.14,3.34-.21,6.73-.19,10-.62a83.08,83.08,0,0,0,8.33-1.44c5.77,1.76,11.58,3.5,17.35,5.24,2.6.77,5.87.16,8.6-.6A116.27,116.27,0,0,0,132.57,145.57Z" fill="#4fdecf"/><path d="M108.34,170.14q4.92,1.86,10,3.3a80.4,80.4,0,0,1-12.55.64c-1.23.11-2.44.16-3.64.18C104.29,173,106.34,171.61,108.34,170.14Z" fill="#fd80aa"/><path d="M107.25,21.56a105.51,105.51,0,0,1,15.31,16.52,87.75,87.75,0,0,0-28.62-.91,63.91,63.91,0,0,0-24.75,8.35c8.67-11.81,20.38-20.41,36.9-23.77Z" fill="#b4eaea"/><path d="M107.25,21.56l-1.16.19c-16.52,3.36-28.23,12-36.9,23.77a0,0,0,0,1,0,0c-.75.46-1.5.92-2.23,1.4a96.89,96.89,0,0,0-13.65-1.28c7.39-15.17,19-27.9,34.08-35.31a48.61,48.61,0,0,1,17.56,9.2C105.72,20.19,106.48,20.88,107.25,21.56Z" fill="#9ff297"/><path d="M108.34,170.14c-2,1.47-4,2.86-6.16,4.12-17.88.07-35.77-10.89-51.26-27.28a40.46,40.46,0,0,1-3.14-3.77,84,84,0,0,0,23.57,4.28c1.93,1.81,4,3.59,6.21,5.33A118,118,0,0,0,108.34,170.14Z" fill="#87abff"/><path d="M50.92,147c15.49,16.39,33.38,27.35,51.26,27.28a45.52,45.52,0,0,1-4.53,2.38,27.56,27.56,0,0,1-13.35,2A114.13,114.13,0,0,1,47.71,168.2c-10.89-10-17.42-22.13-19-34.65a73.2,73.2,0,0,0,19.06,9.66A40.46,40.46,0,0,0,50.92,147Z" fill="#c36aff"/><path d="M92.3,145.25c2-.32,4-.67,6-1-1.62.48-3.28.94-5,1.33Z" fill="#97f7ff"/><path d="M93.83.56c4.73,1.23,9.42,2.72,14.06,4.3a51.26,51.26,0,0,0-15.5,3.22c-1.73.69-3.39,1.45-5,2.27C79.22,8,70.37,7.6,61.05,8.77c-1.39.16-2.76.39-4.1.64.27-.16.55-.32.82-.46,7.76-4.16,16.88-5.9,25.5-8.19A21.7,21.7,0,0,1,93.83.56Z" fill="#f7e707"/><path d="M92.3,145.25l1,.32A83.08,83.08,0,0,1,85,147c-3.32.43-6.71.41-10,.62-1.21,0-2.42-.1-3.6-.14-1.34-1.26-2.64-2.54-3.84-3.82,2.89.39,5.89.66,9.07.84,2.69.14,5.3.32,8,.71.68.09,1.36.21,2.07.35a6.23,6.23,0,0,0,2.68.2C90.28,145.57,91.3,145.43,92.3,145.25Z" fill="#cddfca"/><path d="M92.3,145.25c-.52-.16-1.32.25-1.91.13-.77-.13-1.55-.36-2.32-.5a28.59,28.59,0,0,0-4.62-.46c-2.27,0-4.57.21-6.87.09-3.18-.18-6.18-.45-9.07-.84a68.31,68.31,0,0,1-7.76-10.09,24,24,0,0,0,4.16,2.15C73.24,139.25,82.75,142.32,92.3,145.25Z" fill="#eee6c2"/><path d="M90.39,145.38c.59.12,1.39-.29,1.91-.13-1,.18-2,.32-3,.52a6.23,6.23,0,0,1-2.68-.2c-.71-.14-1.39-.26-2.07-.35-2.67-.39-5.28-.57-8-.71,2.3.12,4.6-.09,6.87-.09a28.59,28.59,0,0,1,4.62.46C88.84,145,89.62,145.25,90.39,145.38Z" fill="#eee6c2"/><path d="M61.05,8.77C70.37,7.6,79.22,8,87.37,10.35,72.31,17.76,60.68,30.49,53.29,45.66a94,94,0,0,0-14.2.71,42.34,42.34,0,0,0-19.81,8.05C24,33.58,38.32,19.6,57,9.41,58.29,9.16,59.66,8.93,61.05,8.77Z" fill="#fbb83a"/><path d="M68.05,47.15c1.53.27,3,.59,4.53.93a85.49,85.49,0,0,0-8.74,5.82C65.16,51.54,66.55,49.3,68.05,47.15Z" fill="#fdedfd"/><path d="M67.51,143.67c1.2,1.28,2.5,2.56,3.84,3.82a84,84,0,0,1-23.57-4.28,43.88,43.88,0,0,1-4.59-7.58C49.74,139.73,57.75,142.32,67.51,143.67Z" fill="#c3b0cf"/><path d="M69.17,45.54c-.37.53-.75,1.06-1.12,1.61l-1.11-.21C67.67,46.46,68.42,46,69.17,45.54Z" fill="#9ff297"/><path d="M66.94,46.94l1.11.21c-1.5,2.15-2.89,4.39-4.21,6.75a3.74,3.74,0,0,1-.36.25,84.16,84.16,0,0,0-18.54,19.2c.09-.69.23-1.4.34-2.09A62.78,62.78,0,0,1,66.94,46.94Z" fill="#fdd090"/><path d="M63.48,54.15a3.74,3.74,0,0,0,.36-.25,104.45,104.45,0,0,0-5.21,10.73c-10.57,25.33-11.44,48.92,1.12,69C54.18,130,50.54,124,49.22,116.92c-1.89-10-3.44-20.07-5.15-30.12a91.88,91.88,0,0,1,.87-13.45A84.16,84.16,0,0,1,63.48,54.15Z" fill="#efd1d1"/><path d="M59.75,133.58a68.31,68.31,0,0,0,7.76,10.09c-9.76-1.35-17.77-3.94-24.32-8-5-10.61-5.62-22.58-5.35-34.37a70.79,70.79,0,0,1,5.1-24.87c.66-1,1.32-2,2-3a91.88,91.88,0,0,0-.87,13.45c1.71,10,3.26,20.12,5.15,30.12C50.54,124,54.18,130,59.75,133.58Z" fill="#d9b0cf"/><path d="M53.29,45.66a96.89,96.89,0,0,1,13.65,1.28A62.78,62.78,0,0,0,45.28,71.26,91.39,91.39,0,0,1,53.29,45.66Z" fill="#fdd090"/><path d="M39.09,46.37a94,94,0,0,1,14.2-.71,91.39,91.39,0,0,0-8,25.6c-.84,1.68-1.64,3.37-2.34,5.13-7.81,12.43-12.31,27.21-13.88,44.83-5.32-8.63-8.83-19.89-11.12-34.19-1.26-7.89-.76-16.25,0-24.25a67.86,67.86,0,0,1,1.34-8.36A42.34,42.34,0,0,1,39.09,46.37Z" fill="#fb906b"/><path d="M45.28,71.26c-.11.69-.25,1.4-.34,2.09-.68,1-1.34,2-2,3C43.64,74.63,44.44,72.94,45.28,71.26Z" fill="#e8af81"/><path d="M47.71,168.2q-2.66-1.24-5.25-2.66C31,159.39,23.35,149.09,16.75,138.27,8.11,124.06,3.49,108.36.9,91.86a39.57,39.57,0,0,1-.41-5.65A66.24,66.24,0,0,0,3.17,98.4a68.16,68.16,0,0,0,25.55,35.15C30.29,146.07,36.82,158.2,47.71,168.2Z" fill="#a792ff"/><path d="M43.19,135.63a43.88,43.88,0,0,0,4.59,7.58,73.2,73.2,0,0,1-19.06-9.66c-.09-.8-.21-1.6-.25-2.4.09-3.43.29-6.7.59-9.93A43.68,43.68,0,0,0,43.19,135.63Z" fill="#fb906b"/><path d="M42.94,76.39a70.79,70.79,0,0,0-5.1,24.87c-.27,11.79.32,23.76,5.35,34.37a43.68,43.68,0,0,1-14.13-14.41C30.63,103.6,35.13,88.82,42.94,76.39Z" fill="#fb90c8"/><path d="M57,9.41c-18.63,10.19-33,24.17-37.67,45A61.72,61.72,0,0,0,9.22,63.71,33.19,33.19,0,0,0,.49,86.12C-3.84,50.62,21.1,16.16,57,9.41Z" fill="#fda47f"/><path d="M28.47,131.15c0,.8.16,1.6.25,2.4A68.16,68.16,0,0,1,3.17,98.4,66.24,66.24,0,0,1,.49,86.21v-.09A33.19,33.19,0,0,1,9.22,63.71a61.72,61.72,0,0,1,10.06-9.29,67.86,67.86,0,0,0-1.34,8.36c-.76,8-1.26,16.36,0,24.25,2.29,14.3,5.8,25.56,11.12,34.19C28.76,124.45,28.56,127.72,28.47,131.15Z" fill="#c46a90"/></svg>