<svg xmlns="http://www.w3.org/2000/svg" width="533.96" height="561.5" viewBox="0 0 533.96 561.5"><path d="M501.46,270.4a113.33,113.33,0,0,1-28.09,1.16c-10.94-1.08-21.93-1.56-32.9-2.32-7.94-.55-15.88-1.46-23.83-1.59a33.07,33.07,0,0,0-16.47,3.58c-1.43.77-3.47,2.51-3.34,3.59a6.36,6.36,0,0,0,3.31,4.24,43,43,0,0,0,11.54,3.83c8.6,1.18,17.29,1.64,25.93,2.48a80,80,0,0,1,10,1.37,246.73,246.73,0,0,0,52.28,5.53c8.64.07,17.28,1.7,25.89,2.8a10.18,10.18,0,0,1,4.28,2c4.12,2.93,4.28,7.41-.06,9.89a21.58,21.58,0,0,1-9.47,2.79c-12.21.46-24.44.56-36.67.55-6.53,0-13.06-.51-19.59-.77-4.25-.16-8.53,0-12.74-.47-16.2-1.86-32.39-3.88-48.56-5.94a96.12,96.12,0,0,0-27.05.09c-1.58.25-3.12.67-4.68,1-2.6.55-4.88,1.69-5.13,4.61-.24,2.71,2.25,3.39,4.12,4.23a72.39,72.39,0,0,0,24.6,6.43c5.31.37,10.65.52,15.92,1.23a22.39,22.39,0,0,1,8.48,2.75c4.66,2.81,4.69,8.08,0,10.67-3.66,2-7.8,3.86-11.87,4.24a78.94,78.94,0,0,1-18-.61,105.47,105.47,0,0,0-26.51-.06,26,26,0,0,1-19.5-5.4,27.44,27.44,0,0,1-9.72-14.15c-5.59-18.32-9.27-37.12-14.46-55.54-3.14-11.17-1.9-22,3.56-32.5,4.14-8,9.07-14.78,17.66-18.25a25.82,25.82,0,0,1,4.47-1.7c8.16-1.66,16.3-4,24.56-4.58,13.59-1,27.27-.87,40.92-1.05,5.13-.07,9.75,1.9,13.84,4.87,3.75,2.73,3.91,4.8,1.19,8.46a22.19,22.19,0,0,1-15.29,8.8c-5.76.8-11.65.54-17.48.88-9.73.56-19.46,1.13-29.18,1.92-3,.25-6.44.78-7.55,4.05-1.17,3.45,1.91,5.57,4,7.52,3.69,3.41,8.49,4.39,13.34,4.4,8.68,0,17.37-.32,26.05-.5,12.06-.25,24.11-.61,36.17-.69,11.88-.07,23.76.2,35.64.24,5,0,9.94,0,14.89-.32,11.24-.7,22.33.59,33.42,2,5.91.77,10.19,4,13.11,9,3,5.22,1.12,10.16-4.78,11.35-7.28,1.47-14.7,2.31-22.06,3.39C504.29,270.18,502.87,270.26,501.46,270.4Zm-92.61-6.56c.21,0,.42-.06.63-.07,2.94-.22,6.74,1.39,9.76,1.68,6.63.65,13.3.39,19.93.93,17.65,1.43,35.25,4.45,53,2.86,9.54-.85,19.05-2.06,28.54-3.34a23.66,23.66,0,0,0,7.54-2.45c3.14-1.61,3.6-4.2,1.62-7.1a16.23,16.23,0,0,0-10.28-7c-9.62-2.14-19.38-2.15-29.13-2.24s-19.47.17-29.21.29l-25.54.32c-10.81.12-21.62.16-32.42.36-10.63.2-21.27.82-31.89.74-5.69-.05-11.41-1.3-15.41-6-2.47-2.9-5.85-5.82-4.1-10.25,1.62-4.09,5.55-5.42,9.48-5.94a151.06,151.06,0,0,1,16.43-1.39c8.16-.18,16.32.14,24.48.13,7.14,0,13.75-1.82,19.2-6.63,3.69-3.25,3.37-5.06-.59-7.83-5.63-3.95-12-3.94-18.42-3.68-7.25.29-14.52.95-21.77.75-12.07-.35-23.6,2.62-35.09,5.43-4.45,1.09-9.36,3.64-12.26,7.05-10.24,12-15.39,25.86-11.09,42q2.06,7.71,4.12,15.43c1.83,6.85,4.24,13.6,5.37,20.56a71.44,71.44,0,0,0,9.26,25.29c4.87,8.23,11.94,11.74,21.32,11,.71-.06,1.42-.13,2.13-.15,9.21-.21,18.38-.8,27.6.91a51.16,51.16,0,0,0,15.33,0c3.41-.41,6.76-2.08,9.89-3.67,2.26-1.15,2.29-2.91.66-4.85a10.18,10.18,0,0,0-7.55-3.41c-3-.17-6-.25-9-.42-12.5-.67-24.67-2.79-36.05-8.35-4.22-2.06-5-5.06-2.44-8.93,2.26-3.36,5.64-4.69,9.46-5.29a89.71,89.71,0,0,1,26.53-.37c21.95,3.12,43.83,6.8,66.07,7.28,3.71.08,7.41.93,11.12.93q20.49,0,41-.48a39,39,0,0,0,7.84-1.21c2.29-.52,4.52-1.52,5-4.18.33-1.94-2.44-4.11-5.69-4.76-.51-.1-1.06-.09-1.58-.16-2.64-.33-5.27-.78-7.92-1-7.59-.56-15.17-1.3-22.77-1.46a204.44,204.44,0,0,1-33.33-3.37c-7.84-1.45-15.56-3.39-23.61-3.57-6.6-.14-13.36-1.41-19.94-1.18-6.25.21-11.77-2.44-16.49-6.51-6.32-5.47-6.15-10.06,1.68-13.13C402.74,266.37,406.06,264.3,408.85,263.84Z" fill="#fd4796"/><path d="M353.54,279.07a27.43,27.43,0,0,1-1.33-3.92c-.66-2.53-.74-5.64,1.15-7.67,2.62-2.81,5.47-5.37,9.44-6.53a3.74,3.74,0,0,1,3.13.71c.9,1.14-.35,1.93-1.54,2.46s-2.58.55-3.86,1a2.17,2.17,0,0,0-1.48,1.17,2.27,2.27,0,0,0,.08,1.21.71.71,0,0,0,.14.32.62.62,0,0,0,.38.13c1.52.16,3.18-.45,4.68-.61,2-.22,4-.3,5.95-.39,2.75-.12,5.49-.11,8.24-.15,1.64,0,4.4-.82,5.88-.26,1.15.43,1.4,2.06.8,3.13-2.61,4.65-14.21,3.24-18.79,3.62a19.48,19.48,0,0,0-3.35.95c1.55,1.83,3.43,1.54,5.17,1.64a79.92,79.92,0,0,1,18.16,2.61,3.39,3.39,0,0,1,1.71.88,1.24,1.24,0,0,1,0,1.74,2,2,0,0,1-1.51.11c-5.6-1-12.08-.28-17.83-.59a28.74,28.74,0,0,1-4-.68,27.61,27.61,0,0,0-4-.32c-1.07-.06-2.89.28-2.47,1.79a8,8,0,0,0,1.07,1.58c.46.77.92,1.54,1.36,2.31s.58,1.45,1,2.15,1.19,1.62,1.79,2.43c.35.5.61,1.33.07,1.59a1,1,0,0,1-.54.05c-3.28-.38-4.69-3.41-6.18-6A55.33,55.33,0,0,1,353.54,279.07Z" fill="#fd4796"/><path d="M348.82,280.82a4.87,4.87,0,0,0,.83-3.83,2.54,2.54,0,0,0-.3-.85,2.74,2.74,0,0,0-.7-.7,6,6,0,0,0-3-1.28,3.48,3.48,0,0,0-3,1.07C339.42,279,345.5,285.12,348.82,280.82Z" fill="#fd4796"/><path d="M189.8,107.77c-3.57.33-5.14-1.64-6.66-3.64A87.92,87.92,0,0,1,172,83.59c-3.64-9-6.82-18.35-11.29-27-3.73-7.18-9-13.57-13.71-20.23a10.79,10.79,0,0,0-3.19-2.77c-2.38-1.46-5-2.06-7.55-.51a7.44,7.44,0,0,0-3.72,7.19,41,41,0,0,0,1,6.31c3.73,17.33,7.46,34.67,11.3,52,.84,3.8,2,7.54,3.23,11.26,3.94,12.33,8.09,24.61,11.9,37,3.43,11.17,8.16,22,9.43,33.76a48.4,48.4,0,0,1,.33,7.42c-.2,4.28-1.51,5.67-5.73,6.29a12.22,12.22,0,0,1-11.19-3.75,116,116,0,0,1-9.05-11.74c-3.53-5.09-6.49-10.6-10.29-15.47a22.28,22.28,0,0,0-8-6c-3.55-1.68-5.89.06-6,4a17.55,17.55,0,0,0,1,6.25c4.32,12.24,9,24.46,16.6,35,5.84,8.15,13,15.5,20.31,22.4,5.58,5.27,13,5,20.21,3.23,6.35-1.56,13.41-3,19.34-5.85,4-1.91,6.08-5.53,11.18-4.78.1,7-14,9.18-19,10.36-3.62.86-7.13,2.17-10.73,3.13-9.83,2.63-18.77,1.17-25.91-6.53-8.91-9.62-18.6-18.73-24.2-30.87-4.31-9.33-8-18.94-11.84-28.49a11,11,0,0,1-.56-5.22c.65-5.26,3.91-7.18,9-5.79a17.78,17.78,0,0,1,9.51,6.51c4.32,5.61,8.27,11.51,12.38,17.28a98.11,98.11,0,0,0,6,8.14A14,14,0,0,0,158,189.8c5.3,2.09,8.68-.11,8.06-5.66a118.69,118.69,0,0,0-3.68-19.25c-3.55-12.46-7.7-24.74-11.5-37.12-3.49-11.36-7.28-22.66-10.16-34.18-4.1-16.34-7.49-32.86-11.17-49.31a25.86,25.86,0,0,1-.52-3.15c-.4-4.18.69-7.79,4.43-10.13s7.83-2,11.55.32a14.4,14.4,0,0,1,3.87,3.59c9.22,12.63,18.05,25.37,22.78,40.66C174,83.09,178.33,90,182,97.07c1.17,2.24,3.19,4,5.44,6.77,1.05-2.37,1.91-3.69,2.23-5.14A120.81,120.81,0,0,0,193,74c.25-16.68.72-33.36,1.61-50,.32-6,1.83-11.92,3.35-17.74s6.9-7.86,12.07-4.83a17.24,17.24,0,0,1,6,5.82,50.94,50.94,0,0,1,5.24,12.14c5.67,21.48,9.21,43.35,12.26,65.36,2.54,18.25,5.94,36.44,12.09,53.93a38.1,38.1,0,0,0,4.33,9.08c3.57,5.15,7.61,4.74,10.57-.81,4.42-8.28,6-17.39,7.6-26.49,1.77-10,3.69-19.88,5.62-29.81a10,10,0,0,1,1.46-3.4c2.57-3.93,6.05-4.26,9.2-.72,3.93,4.4,5.61,10,6.45,15.56,1.86,12.44,3.43,24.95,4.49,37.49.49,5.77-.21,11.7-.89,17.5-.83,7-1.5,14.2-3.52,20.92a50.24,50.24,0,0,1-22.68,29.11c-12.56,7.7-26.41,12.13-40.1,17a58,58,0,0,1-6.5,2.33c-.93.21-2.1-.64-3.15-1,.59-.91,1-2.32,1.8-2.65a108.8,108.8,0,0,1,10.58-3.59c12-3.42,23.58-7.86,34.27-14.37q21.84-13.29,25.33-38.67a187.36,187.36,0,0,0-3.18-66.63,40.28,40.28,0,0,0-3.76-9.32,4.21,4.21,0,0,0-3.27-2c-1.08.09-2.21,1.48-3,2.55a7.86,7.86,0,0,0-.88,3c-2.49,13.24-4.94,26.49-7.45,39.73a49.35,49.35,0,0,1-6.61,17.31c-3.56,5.65-7.44,6.31-12.14,1.67a22.88,22.88,0,0,1-5.83-8.69c-2.95-9.09-5.85-18.29-7.59-27.67-3.77-20.23-6.61-40.63-10.2-60.9-2.38-13.44-4.53-27-9-39.94-1.43-4.11-3.38-7.83-6.93-10.49-4.23-3.16-8-2.29-9.56,2.65a61.14,61.14,0,0,0-3,14.52c-1,18.42-1.44,36.87-2.19,55.3-.4,9.59-1.25,19.13-4.84,28.18A21.82,21.82,0,0,1,189.8,107.77Z" fill="#c3ff6f"/><path d="M191.53,145.89a5.5,5.5,0,0,1,1.19-1.74c1.05.81,1.67,3.14,2.25,4.41a10.73,10.73,0,0,0,1.37,2.4,5.35,5.35,0,0,0,3,1.85c-.42-.09-1.39-5.28-1.54-5.9a33.43,33.43,0,0,0-1.83-5.1q-2.44-5.82-4.94-11.64c-.48-1.13-1.3-2.13-1.66-3.29-.71-2.32.25-4.49,2-4.72,2.29-.3,2.91,1.21,3.4,3.15,1.56,6.15,5.46,10.95,9.27,16.26,2-2.27.91-4.35.81-6.29-.28-5.28-.62-10.56-.85-15.85a7.37,7.37,0,0,1,.61-3.1c.31-.73,1.1-1.77,1.67-1.76a3.31,3.31,0,0,1,2.56,1.29,16.46,16.46,0,0,1,1.33,5c1,8.75,1.93,17.52,3,27.46,2.72-4.15,3.2-8.5,6.61-10.73,2.37.15,2.85,1.86,2.62,3.42q-1.44,9.69-3.31,19.33c-.45,2.29-2.31,3.4-4.58,3.9-2.75.6-5.48,1.29-8.18,2.09-2.17.65-4.22.73-6-.83-3.35-2.91-6.52-6.22-8.37-10.31-.81-1.8-1.91-4.49-1.57-6.5A12.07,12.07,0,0,1,191.53,145.89Z" fill="#c3ff6f"/><path d="M215.1,184.94c-3.26,1.09-6.41-.2-7.52-3.1-1.3-3.38,1.15-10.1,4.06-11.14s8.11,2,9.09,5S218.57,183.77,215.1,184.94Z" fill="#c3ff6f"/><path d="M200,346.89l5.54-1.48c3.21-.88,6.4-1.83,9.65-2.48a51.55,51.55,0,0,1,11.74-1.08q2.88.11,5.76.31c3.81.27,7.62.68,11.4,1.22a171.91,171.91,0,0,1,22.34,4.72,189.29,189.29,0,0,1,21.21,7.37,69.42,69.42,0,0,1,13.07,7c8.36,5.8,12.16,14.7,14.32,24.18,2.67,11.71,3.29,23.49-.43,35.25-1.76,5.57-2.53,11.45-4.1,17.09-1.62,5.79-3.59,11.49-5.55,17.18-1.68,4.9-5.59,7.76-10.07,9.69-6.24,2.69-12.35-1.29-12.06-8.09.32-7.43,1.41-14.82,2.08-22.24a134,134,0,0,0,1-14.81c-.06-3-1.37-6.06-2.09-9-3.45-.53-4.89,1.39-6.44,3-3.8,4-5.58,9.18-6.73,14.32-1.69,7.59-2.56,15.37-3.73,23.08-1,6.48-1.85,13-2.83,19.46s-1.86,13-3.08,19.44a174.63,174.63,0,0,1-24.38,62,52.43,52.43,0,0,1-3.16,4.28c-5.77,7.26-13,3.69-15-2.32-2.84-8.6-4.93-17.61-2.21-26.67,3.82-12.74,8-25.37,12.21-38A44.46,44.46,0,0,0,231,473.19c-.49-6.74-5.13-9.73-11.49-7.38-8.25,3.05-14.4,8.95-20.09,15.37-7.34,8.28-13,17.71-18.43,27.29-2.36,4.16-4.89,8.24-7.43,12.29a16.42,16.42,0,0,1-2.72,3.27c-4.28,4-9.29,2.83-11.51-2.6a22.81,22.81,0,0,1-.52-15.18c2.51-8.68,4.92-17.44,8.23-25.83,7.24-18.31,15.11-36.36,22.54-54.59,3.94-9.68,8.19-19.32,8.14-30.1,0-.71.08-1.42.06-2.13-.12-4.89-1.72-6-6.41-4.24-5.13,2-9.05,5.71-12.2,10-4.19,5.7-7.82,11.81-11.74,17.71a79.57,79.57,0,0,1-5.55,7.79,21.44,21.44,0,0,1-4.93,4,7.84,7.84,0,0,1-9.46-.37c-2.91-2.12-3.56-5.14-3.12-8.52a6.27,6.27,0,0,1,.24-1c3.88-13.45,8-26.86,11.62-40.37s13.35-21.43,25.54-26.58a54.07,54.07,0,0,1,5.69-2,27.23,27.23,0,0,1,5.77-1.44,32.46,32.46,0,0,0,5.94-1.41Zm3.92,1a132.09,132.09,0,0,0-13.25,4.31c-3.64,1.4-7.41,2.36-10.89,4.21-7.87,4.21-15.36,9.08-18.84,18-2.06,5.28-4.27,10.54-5.83,16-2.55,8.86-4.63,17.86-6.87,26.81a16.7,16.7,0,0,0-.65,4.19c0,4.43,3.3,6.63,7.14,4.59a19.37,19.37,0,0,0,5.66-4.69,65,65,0,0,0,5.94-8.81c4.15-7.26,8.63-14.26,14.59-20.22,3.45-3.45,7.2-6.37,12.08-7.4,4.64-1,6.78.39,7.58,5a39.58,39.58,0,0,1,.34,6.36c.05,9.87-4,18.68-7.6,27.52-6.48,15.94-13,31.85-20.06,47.55-5.1,11.42-8.31,23.41-11.76,35.33a29.78,29.78,0,0,0-.58,11,7.5,7.5,0,0,0,3.35,4.94c2.17,1.28,4.09-.68,5.33-2.4a132,132,0,0,0,8.51-12.79c5.51-10,11.33-19.71,18.84-28.31,5.85-6.7,12.18-12.94,20.72-16.29,8.13-3.18,15.56.92,16.16,9.59A42,42,0,0,1,232.22,487c-3.6,12.07-7.78,24-11.95,35.86-3.31,9.42-2.76,18.84-.72,28.34a8.56,8.56,0,0,0,.67,2c2.7,5.59,6.63,6.39,10.71,1.8a48.47,48.47,0,0,0,6.67-9.58c6.9-13,13.26-26.35,16.88-40.71,2.16-8.58,3.72-17.33,5.11-26.07,1.75-11,2.85-22.16,4.61-33.19,1.23-7.69,2.88-15.33,4.75-22.89a24.3,24.3,0,0,1,9.35-13.88c4-2.95,6.3-2.44,8.52,1.89a26,26,0,0,1,2.17,6.51c1.26,6,.2,12-.68,18-1,6.67-1.89,13.35-2.68,20.05-.34,2.92.08,5.8,3,7.41s5.14-.08,7.43-1.42a15.87,15.87,0,0,0,7.51-9.93c2.13-8.05,3.89-16.21,6.27-24.19,3.88-13,5.68-26,2.31-39.34-2.64-10.39-6.95-19.52-17.12-25.09-12.31-6.74-25.71-10.12-39-13.85-7.73-2.17-15.77-2.89-23.76-3.22-2.84-.12-5.69-.19-8.53-.27-1.33,0-2.6-.31-3.92-.32a23.51,23.51,0,0,0-4.34.46Q209.64,346.39,203.89,347.92Z" fill="#ff77f9"/><path d="M228.72,403.34l-10.86,9.78c-2.46-2.23-1.64-4.35-.09-5.81a113.67,113.67,0,0,1,11.74-9.86,7.81,7.81,0,0,1,5.93-.7,37.13,37.13,0,0,1,9,4.19c1.89,1.16,4.11,2.88,4.71,4.8a113.32,113.32,0,0,1,3,14.46c.12.7-.54,1.53-.92,2.51-4.16-1.56-1.76-5-2.67-7.37s-1.62-4.84-2.42-7.27l-1.19.17a22.41,22.41,0,0,0-.54,3.21c-.26,7.44-.41,14.88-.7,22.31-.21,5.29-1.5,8.07-5.28,11.81-2.64-.65-2.8-2.73-2.63-4.92.28-3.53.76-7,.94-10.58a33.86,33.86,0,0,0-.24-7.4c-.55-3.22-2.93-4.12-5.37-1.94a28.59,28.59,0,0,0-4.4,5.87c-1.64,2.52-3,5.22-4.71,7.69-.47.68-2.27,1.35-2.55,1.08a4.07,4.07,0,0,1-1.36-3,16,16,0,0,1,1.84-4.35c3.78-7.75,8.06-15.3,9.73-23.89Z" fill="#ff77f9"/><path d="M239.67,387.43c.6-2.3,1.92-3.06,4-2.49,3.59,1,6.14,5.23,5.18,8.67a4.77,4.77,0,0,1-5.64,3.55C240,396.28,238.36,391.6,239.67,387.43Z" fill="#ff77f9"/><path d="M119.46,282.61a43.29,43.29,0,0,1,2.47-4.85c3.72-5.6,9.67-7.71,15.71-9.18,9.45-2.29,19-4.51,28.57-5.94,11.64-1.72,21.95,1.36,30.61,9.94a49.15,49.15,0,0,1,8.85,11c1.18,2.12,3.27,3.72,4.64,5.76,3,4.41,5.81,8.91,8.55,13.46,7.25,12,14.15,24.19,16.93,38.24,1,5,1.42,9.78-.54,14.6-3.66,9-6.49,18.6-13,26.09A108.17,108.17,0,0,1,206.12,397c-8.75,6.64-18.13,12.45-27.21,18.67a31.45,31.45,0,0,1-14.14,5.79c-3.78.44-4.55-.24-5.61-3.94-2.54-8.84,1-15.43,7.31-21.3Q178,385.59,189,374.44a17.7,17.7,0,0,0,3.74-6.34c1.76-4.79.12-6.77-4.93-6.15a78.3,78.3,0,0,0-24.44,7c-11.75,5.61-22.17,13.32-33.16,20.14-15.81,9.82-31.6,19.84-49.4,25.92-8.89,3-17.77,6.2-27.32,6.62-7.44.32-10.92-4.33-8.17-11.26a25.1,25.1,0,0,1,9.88-12.22c3.59-2.27,7.16-4.73,11-6.38,8-3.4,14.75-8.63,20.78-14.59s11.18-12.81,16.69-19.29a9.28,9.28,0,0,0,1.1-1.82c2.2-4.15,1.48-6.08-3.08-7.5a31.54,31.54,0,0,0-5.75-1c-13.36-1.61-26.13,1-38.67,5.34-11.59,4-23.42,5.68-35.62,3.38-1.39-.27-2.78-.57-4.16-.92-3.19-.8-6.31-1.88-7.12-5.55-.9-4.07-.08-7.83,3.28-10.6,5.9-4.87,12-9.61,19.45-11.77,15-4.33,30-8.75,45.09-12.51,15.3-3.81,30.89-6.5,46.17-10.4,8.54-2.18,17.3-4.26,25-9a36.64,36.64,0,0,0,7.35-6c2-2.15,1.61-3.95-1.15-4.91a29.41,29.41,0,0,0-9.29-1.93c-4.76,0-9.52.83-14.3,1.11-3.83.23-7.68.14-11.52.19Zm5.94-4.07.48,1.47a7.87,7.87,0,0,0,2.39.69c2.29-.11,4.57-.37,6.84-.67,7.6-1,15.21-1.84,22.55,1.18,4.49,1.84,5.56,5.26,3.15,9.44a20.41,20.41,0,0,1-2.68,3.29c-4,4.54-9.32,7.14-15,8.7-13.85,3.82-27.7,7.69-41.7,10.89-21.78,5-43.64,9.61-65,16.46a57.94,57.94,0,0,0-19.09,10.28c-2.67,2.18-4.56,4.58-3.92,8.13s3.86,3.86,6.52,4.6c11.33,3.15,22.62,2.21,33.49-1.67,14.77-5.26,29.82-7.89,45.44-6.76a22.58,22.58,0,0,1,8.07,2.15c3,1.5,3.88,4.06,2.48,7.15a57.87,57.87,0,0,1-5.28,9.11,86.71,86.71,0,0,1-5.88,6.87C88.69,381,77.74,390.37,64.36,396.74c-1.92.91-3.76,2-5.63,3a23.66,23.66,0,0,0-10.13,10.6c-1.06,2.15-1.93,4.28-.52,6.54s3.91,2,6.23,1.84c13.57-.74,26-5.48,38.07-11.15,19-8.93,36.73-20,53.81-32.1,12.42-8.8,26.42-13.57,40.94-17.22a12.88,12.88,0,0,1,2.63-.33c5.92-.17,8.53,3,7.18,8.75a20.22,20.22,0,0,1-5.57,10.12c-7.75,7.54-15.44,15.14-23.29,22.57-4.65,4.4-7.87,9-5.81,15.91.74,2.47,2,3.42,4.18,2.69a51.52,51.52,0,0,0,9.75-4c4.89-2.86,9.55-6.14,14.19-9.4,6.23-4.38,12.53-8.7,18.48-13.44,6.4-5.11,12.1-11,15.7-18.52,2.14-4.49,4.33-8.95,6.34-13.49a27.43,27.43,0,0,0,1.48-17.67c-4.51-20.07-15-36.93-27.44-52.86-3.11-4-6.54-7.76-9.84-11.58-6.79-7.84-15.08-11.06-24.87-10.82-13.08.32-25.51,4.23-37.86,8.12C129.85,275.05,127.71,277.08,125.4,278.54Z" fill="#87ffdd"/><path d="M144.56,337.06c-6,1.09-10.81,1.9-15.62,2.87-2.92.59-5.59.61-7.69-1.76-.07-2.73,1.66-3.48,3.67-4,4.82-1.14,9.64-2.24,14.45-3.43A36.73,36.73,0,0,0,149.49,327c-1.44-.24-2.88-.43-4.31-.72a27,27,0,0,1-5.1-1.3,3.33,3.33,0,0,1-1.57-2.37A2.46,2.46,0,0,1,140,320.7c8.17-1.13,16.46-3.32,24.34,1.09,2.82,1.58,4.88,3.62,5.06,7.46.17,3.47,1.8,6.78-.16,10.31-2.47,4.43-5.37,8.34-10,10.67-2.09,1-4.19,1.85-6.74.54-.58-3.89,2.87-4.92,4.81-6.89s4.59-3.29,5.53-7a25.64,25.64,0,0,0-3.63,1.23c-6.89,3.63-13.72,7.4-20.65,10.95a16.07,16.07,0,0,1-6,1.8,2.12,2.12,0,0,1-1.84-3.62c1.75-1.87,4.13-3.18,6.32-4.61S142.55,341.2,144.56,337.06Z" fill="#87ffdd"/><path d="M182,332.34c-1.86.81-7.83-.11-9.07-1.63a4.29,4.29,0,0,1-.82-2.87c.55-5.23,6.65-8.13,11.24-5.47a4.37,4.37,0,0,1,2.2,4.46A6.19,6.19,0,0,1,182,332.34Z" fill="#87ffdd"/><path d="M160,206.59a27.11,27.11,0,0,0-2.84-4.65c-7.18-7.85-14.47-15.6-21.75-23.36-2.78-3-6.07-5.61-7.08-9.79a6.86,6.86,0,0,1,.17-4.47c1.09-1.92,3.07-1,4.79-.46a61.55,61.55,0,0,1,19.5,10.51c4.9,3.76,9.91,7.39,15.09,10.75,7.74,5,15.68,9.69,23.49,14.58a137.59,137.59,0,0,1,12.39,8.2c4,3.17,7.55,6.91,11.25,10.46,1.42,1.36,1.59,2.73.59,4.72-2.69,5.38-4.93,11-7.45,16.45-6.3,13.69-12.38,27.51-19.13,41-3.23,6.45-7.71,12.29-11.74,18.32-2.12,3.17-5.66,4.38-9.08,5.11-9.25,2-18.53,2.67-27.93.35-12.59-3.12-25.09-6.51-37-11.71a31,31,0,0,1-8.62-6.06c-5-4.7-3.72-11.1,2.84-13.4a27.79,27.79,0,0,1,10.43-1c3.51.17,7,1.48,10.46,1.85,3.75.39,7.75,1.36,11.13-1.95a9.92,9.92,0,0,0-5.15-5.89c-3.69-1.71-7.45-3.29-11.17-4.94-9.73-4.32-19.58-8.37-29.13-13.05-8.74-4.28-17.15-9.26-25.72-13.9-1.56-.85-3.22-1.49-4.81-2.28-8.89-4.42-18-8.39-26.57-13.44-7.44-4.41-14.23-9.93-21.12-15.2a21.64,21.64,0,0,1-4.59-5.76c-1.26-2-2-4.31-.16-6.42a6.8,6.8,0,0,1,6.66-2.51,50.47,50.47,0,0,1,7.69,2.09,59.32,59.32,0,0,0,23,3.48C44.4,194,50,192.7,54.59,188.35c7-6.56,8.92-22.83,0-32.08-3.78-3.93-8.3-7.16-12.54-10.64-4-3.26-8.26-6.16-11.9-9.73-1.89-1.86-2.92-4.74-3.84-7.34a4.24,4.24,0,0,1,1-3.77c.7-.59,2.49-.1,3.74.19,1,.24,1.88,1,2.88,1.33,13.53,4.34,24,13.45,35,21.93,2.94,2.28,5.68,4.83,8.67,7q20.11,14.82,40.33,29.51c4.44,3.25,8.68,6.78,13.31,9.72a115.92,115.92,0,0,0,13.58,7.21c4.61,2.15,9.42,3.86,14.15,5.76ZM31,128.21l-1.13,1c1.41,1.92,2.56,4.15,4.3,5.71,3.29,3,6.88,5.56,10.42,8.22,3,2.24,6.2,4.16,9,6.54,6.68,5.6,10.85,12.44,10.69,21.6-.23,13.32-7.07,24.29-21.83,25.35-8.19.59-16.24-.74-24.16-2.84-3.08-.82-6.08-2.09-9.2-2.58a6.17,6.17,0,0,0-4.66,1.5c-.57.54,0,3.11.88,4.14a54.63,54.63,0,0,0,6.78,6.65,52.78,52.78,0,0,0,6.07,4.3c6.73,4.26,13.35,8.73,20.29,12.61S53,227.22,59.86,231.22a369.19,369.19,0,0,0,44.65,22.47q7.13,2.94,14.31,5.75c5.51,2.15,10.76,4.66,14.49,9.5,2.87,3.72,2.51,5.2-1.88,7.08a21.87,21.87,0,0,1-14.58.9,48.07,48.07,0,0,0-8.82-2,22.25,22.25,0,0,0-8.8.9c-4.06,1.44-4.91,5-1.83,7.9s6.47,5.93,10.3,7.24c10.89,3.74,22.08,6.6,33.13,9.86,7.7,2.27,15.49,1.83,23.18.42,5.7-1,10.81-3.38,13.1-9.52.6-1.59,2-2.87,3-4.31,1.83-2.6,4-5,5.4-7.85,3.23-6.5,6.08-13.2,9.11-19.81q7.54-16.43,15.16-32.83c1.78-3.82,1.44-7.46-1.53-10.3-4.46-4.27-8.8-9-14-12.06-14.49-8.6-29.14-16.9-42.66-27-1.56-1.17-3-2.47-4.59-3.62-4.37-3.2-9.91-5.21-13.85-4.93,1.08,3.47,3.62,5.62,5.89,8.05q11.79,12.63,23.34,25.48a10.51,10.51,0,0,1,2.55,4.57,7.34,7.34,0,0,1-.7,5c-1.12,1.79-3.22,1.07-4.83.26-9-4.54-18.7-8.17-26.9-13.91C110.74,183.18,89.63,167,68.22,151.19c-7.42-5.47-14.83-11-22.49-16.09C41.23,132.09,36.48,129.28,31,128.21Z" fill="#ffa47f"/><path d="M136.15,242.56c-4.2-2.53-7.89-4.95-11.76-7s-8.06-3.71-11.94-5.83-8.3-3-11-7.14c3.56-4.19,7.93,1.21,11.63-1.57-1.4-3.74-6.82-4.33-7.48-8.67,1.73-2.32,3.37-1.45,5.08-.21q9.44,6.88,18.91,13.7c1.18.85,2.47,1.54,3.71,2.3l.72-.89a55.31,55.31,0,0,1-4.44-4.9c-.61-.84-1.06-2.56-.61-3.23,1-1.5,2.47-.72,3.65.25,4.09,3.39,8.25,6.69,12.24,10.19a15.12,15.12,0,0,1,3.16,4.18c2.84,5.27,1.08,10.13-3.91,13.4a14.09,14.09,0,0,1-11.62,2,94.94,94.94,0,0,1-9.72-2.67c-.73-.26-1-1.93-1.42-2.94.93-.33,1.92-1.06,2.76-.92a47.45,47.45,0,0,1,6.11,1.71C132.17,244.93,134,244.87,136.15,242.56Z" fill="#ffa47f"/><path d="M155.37,253.31c-3.28-1.17-5-6.1-3.39-10a6.36,6.36,0,0,1,7.49-3.39c3.34,1.19,5.71,5.89,4.6,9.12S158.44,254.4,155.37,253.31Z" fill="#ffa47f"/><path d="M380.06,384.74a21.78,21.78,0,0,0,1.53,2.49c9.51,10.52,19.43,20.7,28.43,31.63,8.19,9.95,14.08,21.42,16.19,34.31,1.67,10.26,1.65,20.51-3.29,30.17-3.14,6.15-6.16,7.71-12.87,6.11-7.17-1.71-11.78-6.88-16.35-12.14-7.81-9-12.22-19.9-17.37-30.38-3.69-7.47-7.21-15-10.77-22.57-2.16-4.58-4.9-8.67-9.45-11.18-3.06-1.69-4.72-.82-5,2.66a20.09,20.09,0,0,0,.36,6.34c2.17,8.58,4.44,17.14,6.92,25.64,3.12,10.73,6.64,21.34,9.65,32.09,2.09,7.46,1.83,15.12.49,22.71-1.06,6-4.27,8.58-10.41,8.23-8.37-.48-15.59-3.71-20.71-10.47a87.78,87.78,0,0,1-13.23-25.92q-3.06-9.33-5.87-18.74c-2.56-8.67-5-17.38-7.47-26.07a12.54,12.54,0,0,0-.88-1.9c-2.5,4.12-4.57,8.42-7.45,12.08-3.52,4.47-7.51,4.68-12,1.06a29.81,29.81,0,0,1-5.79-6.18,125.28,125.28,0,0,1-21.44-57.2c-.77-6.48-.49-13,2.15-19.34,2-4.84,5.8-8,9-11.7,4.42-5.07,9.15-9.88,13.74-14.79.12-.13.22-.28.35-.4,12.38-11,26.17-19.65,42.34-23.54a25.61,25.61,0,0,1,20.38,4,239.86,239.86,0,0,1,23.39,17.52,128.83,128.83,0,0,1,25.17,30.09c4,6.61,3.32,14-1.19,19.33-2.63,3.11-6.18,4-9.86,4.67C386.07,383.83,383.35,384.21,380.06,384.74ZM305.35,323c-1.6,1.12-3.19,2.26-4.81,3.34a80.38,80.38,0,0,0-22.07,22.75c-1.36,2.05-2.72,4.59-4.74,5.62-5.38,2.72-7.09,7.43-7.33,12.64a94.16,94.16,0,0,0,.72,18c2.11,14.4,7.75,27.63,14.78,40.27a77.67,77.67,0,0,0,6.86,10.13c4.71,6,9.84,5.94,13.45-.64a39,39,0,0,0,4.07-13c1.65-11.47,1.78-23-1-34.37-.34-1.39-.67-3,1.25-3.49s2.95.85,3.38,2.55a15.89,15.89,0,0,1,.4,3.16c.27,5.14.37,10.28.77,15.41.54,6.89.65,13.91,2.11,20.61,2.35,10.74,5.58,21.28,8.57,31.87,3.08,10.92,6.18,21.85,11.67,31.89,4.81,8.78,10.49,16.45,21.41,18.16,7.84,1.22,10.33-.69,11.18-8.53,1.76-16.12-3.78-30.94-9-45.5a251,251,0,0,1-9.87-35.27,14.35,14.35,0,0,1,.15-5.26c.7-3.79,3.19-5.54,6.88-4.63a12.51,12.51,0,0,1,5.67,2.72c2.73,2.7,5.61,5.6,7.26,9,5.69,11.62,10.91,23.48,16.24,35.28a97.81,97.81,0,0,0,16.29,24.83c2.61,2.94,5.48,5.55,9.47,6.58,5.65,1.45,9.26.29,11.23-5.08,1.86-5.1,3.51-10.59,3.62-15.94.36-17-5.69-32-16.48-45-6.11-7.36-12.68-14.33-19-21.51a114.68,114.68,0,0,0-18-16.54,88.07,88.07,0,0,1-11.07-9.9c-1.64-1.7-2.53-4.21-3.41-6.48a2.81,2.81,0,0,1,1.1-2.57,3,3,0,0,1,2.78.63,63.36,63.36,0,0,1,4.17,6.16c5.31,8.3,12.47,12.41,22.53,10.09.69-.16,1.4-.19,2.1-.34,7.86-1.64,11.57-6.9,10-14.72a20.07,20.07,0,0,0-3.13-7.21c-7.6-11-16-21.33-26.38-29.78a170.65,170.65,0,0,0-19.84-14.25A25.44,25.44,0,0,0,327.75,312,89.09,89.09,0,0,0,305.35,323Z" fill="#f9e800"/><path d="M344,370.82c-1.77.33-3.35-.81-4.68-1.92a43.3,43.3,0,0,0-3.91-3.42c1.24,3.92,3.88,6.87,6.48,9.87a59.92,59.92,0,0,1,5.61,7c2.14,3.39,1.94,7.56,0,8.85-1.68,1.13-5.05-.3-7.7-3.4-1-1.2-1.88-2.57-2.84-3.84s-1.89-2.38-2.83-3.58l-1,.45c.7,2.42,1.58,4.8,2,7.27a37.18,37.18,0,0,1,.81,8.33c-.05,1.34-1.15,3.31-2.26,3.75s-2.92-.59-4.06-1.45a12.91,12.91,0,0,1-4.81-8.6A29.23,29.23,0,0,0,323,384.7a2.5,2.5,0,0,0-.75-1.17.93.93,0,0,0-1.26.1c.13.88.65,2.67-.63,3.05a1.62,1.62,0,0,1-1.54-.5,4.63,4.63,0,0,1-.87-1.45c-.35-.8-.7-1.61-1-2.45a16.57,16.57,0,0,1-.5-8.64,23.71,23.71,0,0,1,1.51-4.26c1.31-3.22.73-5.95,4.1-8.13a19.75,19.75,0,0,1,6.09-2.25,7.5,7.5,0,0,1,2.39-.29c1.34.13,2.52.86,3.86,1a24.58,24.58,0,0,1,3.58.3c4.13,1,7.61,5.42,7.33,9.65a1.19,1.19,0,0,1-.19.67,1.2,1.2,0,0,1-.53.35A3.57,3.57,0,0,1,344,370.82Z" fill="#f9e800"/><path d="M323.22,359.23c.83-1.06.61-2.58.36-3.9l-.44-2.24c-.79-4-8.77-3-8.56,1.43a8.18,8.18,0,0,0,2.41,5.22C318.46,360.86,322,360.78,323.22,359.23Z" fill="#f9e800"/><path d="M284.57,144.55c3.9-.22,5.59-2.45,6.72-4.75a123.36,123.36,0,0,0,6-14.17c3.86-11.24,7.21-22.66,11.21-33.86A90.84,90.84,0,0,1,315.7,77c3.2-5.52,7-10.71,10.43-16.08,4.69-7.26,11-12.92,17.54-18.45,8-6.82,17.76-4.17,24.62.53,1.9,1.3,3.34,4.38,3.56,6.78a40.62,40.62,0,0,1-.63,13.12c-2.67,10.94-7.88,20.8-14,30.22A121.13,121.13,0,0,0,349,108a14.59,14.59,0,0,0-1,11.06c5.26-.34,8.9-3.6,12.73-6.26a33.57,33.57,0,0,0,4.91-4.85q16.38-17.46,32.74-35a22,22,0,0,1,2.37-2.15c6.34-5,12.54-3,14.46,4.79C417.08,83.05,415,90,411.14,96c-6.57,10.08-14,19.57-21.05,29.37q-11.47,16-22.8,32.09c-2.15,3-4.21,6.15-6.3,9.23a23,23,0,0,0-4,13.24c6.24-.57,10.23-4.08,14-8.17a99.61,99.61,0,0,1,8.8-8.39c2.91-2.47,6.33-2.32,9.46-.47a7.75,7.75,0,0,1,3.85,8.2c-.67,4.17-1.4,8.49-3.09,12.3-6.37,14.34-15.29,27.12-24.54,39.75a150.09,150.09,0,0,1-18.77,20.93c-7.16,6.69-15.48,8.4-24.64,5.25-5.51-1.89-10.78-4.5-16.25-6.57s-11-4.08-16.56-5.73a72.55,72.55,0,0,1-24.17-12c-10.12-7.81-16.77-17.86-18.6-30.58a107,107,0,0,1-.79-18.6c.45-13.27.73-26.56,3.36-39.67,1.6-8,5.07-15.13,9.15-22,2.42-4.09,6.45-6,11-6.72,5-.81,7.69.83,9.54,5.54a70.71,70.71,0,0,1,4.76,23.89A69.94,69.94,0,0,0,284.57,144.55Zm69.14,40.95c-.27-2.6-1-4.65-.54-6.31,1.47-4.89,2.73-10.08,5.36-14.35,12.05-19.5,26.86-37,40.59-55.33a172,172,0,0,0,11.39-16.66,21.44,21.44,0,0,0,2.33-17.47c-1.19-3.89-3.7-5.11-7.38-3.37a18.53,18.53,0,0,0-5.54,4c-10.64,11.41-22.32,21.83-31.85,34.3a37.1,37.1,0,0,1-18.21,12.46c-4.15,1.36-6.05-.11-6.17-4.46a21.08,21.08,0,0,1,.36-3.7c.95-6.49,4.09-12,7.47-17.49,4.77-7.69,9.52-15.4,13.94-23.28A38.19,38.19,0,0,0,370.2,52.3c-.22-3.36-1.35-6.28-4.51-8-6.87-3.65-13.72-4.59-20.77,1.14a92.05,92.05,0,0,0-18.16,20c-6.92,10.16-13.12,20.65-16.9,32.46q-5.6,17.48-11.58,34.82c-1.74,5-3.4,10.17-7.57,13.86-1.84,1.62-3.76,3.79-6.5,2.83s-3.19-4-3.72-6.59a14.7,14.7,0,0,1-.09-2.66c0-1.95,0-3.91-.08-5.86a51.72,51.72,0,0,0-3.69-18.69c-2.18-5.11-4.35-5.91-9.7-4.24-3.27,1-5.34,3.22-7.08,6.06-6,9.8-8.76,20.63-9.5,31.86-.82,12.55-.65,25.16-1.12,37.73-.4,10.51,3.45,19.41,9.79,27.44,6.59,8.32,15.33,13.77,25.1,17.3,3.42,1.23,6.65,3,10.19,3.84a15.55,15.55,0,0,0,2.7.46,10.33,10.33,0,0,1,2.68.76l6.17,2.16c.23-.06.88.31,1.11.39l1.35.48c.86.3,1.72.63,2.58.9a22.15,22.15,0,0,1,4.38,2.43c6.22,3.76,19.67,6.64,27.16,0,4.77-4.22,10-8.15,13.9-13.1,7.65-9.75,14.8-19.94,21.59-30.32,4-6,7-12.69,10.09-19.27a25.68,25.68,0,0,0,2.15-9.24c.26-4.85-3.24-7-7.79-5.29-3.79,1.46-6.48,4.16-8.74,7.49C369.09,180.18,362.42,183.49,353.71,185.5Z" fill="#a992ff"/><path d="M308.48,189.73l-.24,0a8.7,8.7,0,0,1-2.41-.71c-2.24-1.15-4.53-2.44-6.71-3.74a7,7,0,0,1-3.19-3.63c-1.54-4.41-2.67-8.89-1.55-13.53a4,4,0,0,1,2.68-2.57c1.81-.11,1.94,1.63,1.81,3.14a27.35,27.35,0,0,0-.3,2.87,3.54,3.54,0,0,1-.06,1c-.09.37-.34.49-.3,1a5.25,5.25,0,0,0,.52,2.17,1.65,1.65,0,0,0,3.1-.13,6.11,6.11,0,0,0,.4-1.7,24.33,24.33,0,0,1,.76-4.07,33.75,33.75,0,0,1,2.6-4.94c1.63-2.94,3.35-5.85,5.17-8.67a75.49,75.49,0,0,1,5.8-8.22c1.12-1.31,3-2,4.71-3,2.11,3.94,0,6.38-1.34,9l-4.45,8.66q-1.16,2.25-2.3,4.52c-.54,1.06-1.63,2.27-1.8,3.47a1.8,1.8,0,0,0,.78,1.82,1.84,1.84,0,0,0,1.54.05c2-.71,3.09-3.18,4.26-4.78q2-2.82,4.09-5.63a10.16,10.16,0,0,1,1.4-1.6c1.34-1.2,2.83-2.56,4.63-1,1.51,1.27.91,2.93,0,4.32q-4,5.91-8.17,11.75c-.64.9-1.49,1.67-2.12,2.58a7.56,7.56,0,0,1-1.85,2.25c-1.09.77-1.36,1.94-2.48,2.63-.68.42-1.45.66-2.16,1a2,2,0,0,0-.85.69.83.83,0,0,0,.09,1c2.87-.15,5.14-2.95,6.9-4.9a6.39,6.39,0,0,1,4.28-2.06,1.54,1.54,0,0,1,.74.08c1.35.58.71,3.87.18,4.86-.89,1.67-2.64,2.87-4.06,4C315.9,189.76,311.77,190.24,308.48,189.73Z" fill="#a992ff"/><path d="M298.89,196.94a6.38,6.38,0,0,0,3.6-.47,3.85,3.85,0,0,0,1.45-.88,4.47,4.47,0,0,0,.8-3.14,4.27,4.27,0,0,0-.73-2.84,3.26,3.26,0,0,0-1-.74,3.64,3.64,0,0,0-2.36-.44,4.8,4.8,0,0,0-2.3,1.65l-1.26,1.35c-.89.95-1.78,2.12-1,3.38A4.7,4.7,0,0,0,298.89,196.94Z" fill="#a992ff"/><path d="M299.5,267.27a26.69,26.69,0,0,1,1.15,4.7c.75,4.88,1.71,9.85.32,14.77-2.17,7.67-6.9,13-12.72,15-11.69,2.79-20.91,1.29-28.84-4.9-9-7-10.31-15.23-5.6-25.25,2.23-4.73,4.82-9.31,8.91-12.87a27.64,27.64,0,0,1,5.78-3.93" fill="none" stroke="#fd4796" stroke-miterlimit="10" stroke-width="3.95"/><path d="M280.8,278.83a44.83,44.83,0,0,1,3.16,6c1.71,3.82,2.54,8.05,3.44,12.2" fill="none" stroke="#ff77f9" stroke-miterlimit="10" stroke-width="3.95"/><path d="M247.74,257.8c3-6.53,8.58-9.37,15.1-10.86a27,27,0,0,1,6-.91,9.42,9.42,0,0,1,4.51,1.26,40.09,40.09,0,0,1,11.44,10.07c2.78,3.58,3.73,7.9,4.3,12.24a42.93,42.93,0,0,1-1.5,16.89,11.42,11.42,0,0,1-6.61,7.7c-3.73,1.7-7.74,2.51-11.92,1.24-14.22-4.32-24.58-17.76-22.25-33.82C247,260.32,247.43,259.07,247.74,257.8Z" fill="none" stroke="#a992ff" stroke-miterlimit="10" stroke-width="3.95"/><path d="M256.47,318.68c-3.25-1-6.48-2.05-9.66-3.25a8.26,8.26,0,0,1-5.1-6.5c-.64-3.46-1.18-6.94-1.77-10.41a31.64,31.64,0,0,1,1.65-10.41" fill="none" stroke="#ff77f9" stroke-miterlimit="10" stroke-width="3.95"/><path d="M251.37,255.74c13.51.23,24.54,12.44,23.34,26.26-.5,5.8-2.58,10.73-6.83,14.14a36.08,36.08,0,0,1-12.7,6.55c-7.19,2-14.2,1.34-20.76-3.5a19,19,0,0,1-7.64-10.89" fill="none" stroke="#ffa47f" stroke-miterlimit="10" stroke-width="3.95"/><path d="M293.1,306.4a36.72,36.72,0,0,1-7.25,6.67c-5.21,3.65-11.08,3.83-16.91,1.58a44.41,44.41,0,0,1-6.16-3,33.12,33.12,0,0,1-6.5-5.28c-6.41-6.3-7.32-14.18-5.71-22.47.58-3,2.11-5.83,3.39-8.66a7.54,7.54,0,0,1,2.26-2.89c2.24-1.66,4.63-3.12,7-4.6a13.73,13.73,0,0,1,2.52-1.17c8.05-3,26.14,3.9,30.32,12.83a25.44,25.44,0,0,1,1.86,18.09A24.61,24.61,0,0,1,293.1,306.4Z" fill="none" stroke="#f9e800" stroke-miterlimit="10" stroke-width="3.95"/><path d="M241.59,288.11c2.52-7.48,7.8-13.89,15.18-16.77,2.94-1.14,5.78-1.18,8.85-1.2,7.46,0,11.94,3.64,15.18,8.69" fill="none" stroke="#ff77f9" stroke-miterlimit="10" stroke-width="3.95"/><path d="M226.78,288.3a24.73,24.73,0,0,1-.52-8.15c.1-1.16.35-2.31.53-3.46C229.33,265,237.7,257,248.63,255.85a22.91,22.91,0,0,1,2.74-.11" fill="none" stroke="#ffa47f" stroke-miterlimit="10" stroke-width="3.95"/><path d="M237.07,286.9c-5.86-6.21-7.59-16.06-5-22.85,1.5-4,10.34-12.49,16.82-15.48,5.64-3.53,13.38-3.08,21.24-.29,5.82,2.06,8.8,7,11.21,12,4.38,9.18,2.67,19.5-4.35,26.18" fill="none" stroke="#c3ff6f" stroke-miterlimit="10" stroke-width="3.95"/><path d="M287.4,297l.3,1.39c.73,3.29-.42,6.36-2.38,9a35,35,0,0,1-19.27,13,5.79,5.79,0,0,1-3,.2l-6.59-2" fill="none" stroke="#ff77f9" stroke-miterlimit="10" stroke-width="3.95"/><path d="M277.07,296.86c-1.89,7.06-5.87,13.11-10.15,16.34-10,8.56-23.51,5.33-31.38-2a11.23,11.23,0,0,1-2.16-3.06A41.11,41.11,0,0,1,228.79,290c-.21-10.59,4.69-17.58,13-21.75" fill="none" stroke="#87ffdd" stroke-miterlimit="10" stroke-width="3.95"/><path d="M276.94,286.48a23,23,0,0,1-3,2.39c-5.68,3.82-12.35,6-19.58,4.72-2.13-.39-4.27-.78-6.43-1.08a18.2,18.2,0,0,1-10.86-5.61" fill="none" stroke="#c3ff6f" stroke-miterlimit="10" stroke-width="3.95"/><path d="M268.5,254.83c5.93-3,12.33-3.07,19.08-.21a20.78,20.78,0,0,1,11.92,12.65" fill="none" stroke="#fd4796" stroke-miterlimit="10" stroke-width="3.95"/><path d="M241.82,268.25a39.15,39.15,0,0,1,6.54-2.51c7.72-2.23,15.21-2,21.89,3.52A21.4,21.4,0,0,1,277.08,280a31.1,31.1,0,0,1,0,16.85" fill="none" stroke="#87ffdd" stroke-miterlimit="10" stroke-width="3.95"/></svg>