<svg xmlns="http://www.w3.org/2000/svg" width="704.72" height="463.41" viewBox="0 0 704.72 463.41"><path d="M66.4,51c3.48-11.55,11.14-10.91,17.9-11,24.13-.45,48.28-.3,72.41-.8q104.74-2.14,209.5-4.67a18.27,18.27,0,0,0,4.52-1c6-9,10.68-18.14,17.41-25.33,6-6.48,14.33-9.26,24.25-7.76C447,5.62,481.85,5.06,516.85,4.84c53.91-.34,107.84,2.92,161.76,4.87a72.35,72.35,0,0,1,18.75,3.06c3.07,1,7.61,5,7.35,7.11a14.9,14.9,0,0,1-6.62,10c-3.55,2-8.61,1.86-13,1.69-32.27-1.27-64.61-1.79-96.78-4.42-57-4.65-114-3-171-3.68-8.63-.11-8.64.09-15.64,8.32,1.45.89,2.9,2.41,4.58,2.74,28.62,5.69,57.27,11.23,85.91,16.81,9.31,1.82,18.68,3.37,27.89,5.62,8.91,2.17,13.5,8.83,16,17.27,5.74,19.21-.75,26.63-21,26.45-15.77-.13-31.54,2.22-47.34,2.89-27.19,1.17-54.42,1.61-81.6,3-6.54.34-14,1.77-19.18,5.34-7,4.77-5.06,13.37,3,16.24,5.28,1.88,11.17,2.38,16.83,2.76,36.75,2.43,73.49,5.13,110.28,6.74,16.52.72,29.41,6.92,39.57,19.44,10.76,13.25,7.8,24.76-9.2,28a501.32,501.32,0,0,1-67.79,8.15c-28.42,1.48-57,.66-85.44,1.12-3.34,0-6.66,1.93-10,3-.14,1.21-.29,2.42-.43,3.64,7.31,2.88,14.4,6.77,22,8.46,26,5.79,52.36,10.23,78.31,16.34A289.28,289.28,0,0,1,507.4,240c6.77,2.77,12.64,8.38,18.06,13.6,6.19,6,6.92,14.54,2.58,21.06-3,4.46-9.82,8.14-15.33,8.78a404.33,404.33,0,0,1-47.46,2.51c-25.35,0-50.7-1.34-76.06-1.5-9.44-.06-19.2.45-28.19,2.94-4.25,1.18-8.69,7.24-9.8,11.87-.55,2.3,5.7,8.09,9.75,9.26a94.56,94.56,0,0,0,24.39,3.16c57.12.88,114.25,1.31,171.37,2.23a250.76,250.76,0,0,1,32.22,3,46.3,46.3,0,0,1,16.12,5.29c15.67,9,16.83,24.39,2.23,35.37-8,6-17.32,10.56-26.48,14.85-14.34,6.72-29.12,12.49-43.54,19.06a31,31,0,0,0-10.62,7.67c-5.88,6.93-3.62,16.45,5.16,17.76,9,1.35,19.6,1.5,27.72-2,29.09-12.49,57.44-26.7,86-40.37,3.42-1.63,6.33-4.41,9.81-5.8,6.29-2.52,11.15-1,13.44,7.32,3,10.78-60.8,40.07-69.29,42.76-24.62,7.79-89.09,27.27-98.1-5.55-3.75-13.64,2.43-22.48,13.08-28.54,12-6.82,24.26-13.64,36.37-20.07,10.19-5.42,21.94-5.1,32.5-9.89,3.48-1.57,6.95-3.71,8.71-7.1,10.57-20.42-48.25-16.7-48.64-14.61-6,32.29-17.13,41.59-49.64,40.36-32.94-1.24-65.81-5-98.75-5.54-38.68-.66-76.75-10.86-115.81-6.08-13.06,1.6-26.6-.91-39.92-1-8.69-.05-17.38.87-30.36,1.59,5.82,6.69,8.25,11.18,12,13.45,9.21,5.55,19.44,9.43,28.51,15.15,11.15,7,22.53,14.23,32,23.27,8.42,8.08,12.72,19.52,7.38,31.38-5.07,11.28-22.24,19.68-35.41,17.47A105.07,105.07,0,0,1,228,455.71C188,437.76,148.42,419.15,108.59,401a230.38,230.38,0,0,0-75-20.13C22.18,379.82,9.73,380.83,0,373" fill="#0d000d"/></svg>