<svg xmlns="http://www.w3.org/2000/svg" width="1989" height="1229" viewBox="0 0 1989 1229"><rect y="-3264" width="1989" height="5807" fill="#fff8e7"/><rect y="-1075" width="1989" height="1361" fill="#0d000d"/><rect x="-0.33" y="882" width="1989.33" height="2966" fill="#c3ff6f"/><path d="M942.1,65.53c160.72-57.51,339.12-42.28,447.44,15,179,81.41,245,262.09,229.25,426.34A415.53,415.53,0,0,0,1595,447.66c-4.91-9.83-10-19.42-15.23-28.81-.72-17.76-2.82-33-6.41-44.6C1527.93,222.4,1342.79,73.58,1152,97.74c-62.25-15.36-124.93-29.5-187.6-31.61C956.93,65.8,949.51,65.67,942.1,65.53Z" fill="#c1fe70"/><path d="M1152,97.74c190.78-24.16,375.92,124.66,421.37,276.51,3.59,11.57,5.69,26.84,6.41,44.6-55.55-97.25-134.21-160.51-234-189.94-1-1.9-1.77-3.87-2.75-5.77-27.73-52.8-68.7-95.76-128.12-110C1194.07,108.14,1173.1,102.81,1152,97.74Z" fill="#84fedd"/><path d="M1214.9,113.09c59.42,14.29,100.39,57.25,128.12,110,1,1.9,1.77,3.87,2.75,5.77-42.72-12.62-89.21-19.17-139.7-19.13-49.48-.1-96.94,8.07-142.82,20.81-45.13-16.49-94.49-28.24-143.53-35.09,3-1.68,6-3.42,9.14-5,35.09-17.38,70.23-34.89,104.52-53.92A329.34,329.34,0,0,1,1152,97.74C1173.1,102.81,1194.07,108.14,1214.9,113.09Z" fill="#8ccec0"/><path d="M1345.77,228.91c99.81,29.43,178.47,92.69,234,189.94,3.23,74.25-15.81,193.81-48.59,288q-22.14,24.81-46,47.34-2.87-15.66-5.92-30.92c-12.39-63.67-32.13-122.7-65.7-172.66C1419.84,439.22,1398.63,331.66,1345.77,228.91Z" fill="#35c7ff"/><path d="M964.41,66.13c62.67,2.11,125.35,16.25,187.6,31.61a329.34,329.34,0,0,0-118.63,38.8c-34.29,19-69.43,36.54-104.52,53.92-3.17,1.62-6.09,3.36-9.14,5-63.39-8.79-126.55-9.24-180.52-.45,9.41-9.81,19-19.37,29.32-28.42,51.82-45.78,111.32-78.94,173.58-101.1C949.51,65.67,956.93,65.8,964.41,66.13Z" fill="#7186ff"/><path d="M1206.07,209.78c50.49,0,97,6.51,139.7,19.13,52.86,102.75,74.07,210.31,67.77,321.69-28.82-43-67.86-79.52-121.62-106.4-.45-.06-.7-.18-1.15-.24-17.19-37.84-39.93-74.44-67.84-109.91-34.71-44-92.59-78.77-159.68-103.46C1109.13,217.85,1156.59,209.68,1206.07,209.78Z" fill="#52f2b3"/><path d="M1579.79,418.85c5.28,9.39,10.32,19,15.23,28.81a415.53,415.53,0,0,1,23.77,59.26A484.83,484.83,0,0,1,1598,608.54c-6.92,21-19.72,41-33.38,58.58-10.71,13.77-21.87,26.84-33.42,39.72C1564,612.66,1583,493.1,1579.79,418.85Z" fill="#6f37ff"/><path d="M942.1,65.53c-62.26,22.16-121.76,55.32-173.58,101.1-10.31,9.05-19.91,18.61-29.32,28.42-40.77,6.53-76.43,18.25-102.88,35.57-13.89,9.21-27.84,19.18-39.46,30.92-13.9,13.79-27.87,27.71-41.7,41.69,7.7-19,16.62-37.63,25.8-56.74C656.71,89.07,794.86,63.13,942.1,65.53Z" fill="#fd77f9"/><path d="M1063.25,230.59c67.09,24.69,125,59.44,159.68,103.46,27.91,35.47,50.65,72.07,67.84,109.91-22.38-6.34-44.4-14.4-67.27-18.45-7.43-1.41-14.86-2.5-22.29-3.6-88.1-88-195.69-122-314.83-120.64,14.48-7.81,29.55-15.17,45.7-22.17C974.69,260.33,1018.27,243.14,1063.25,230.59Z" fill="#b2fae5"/><path d="M919.72,195.5c49,6.85,98.4,18.6,143.53,35.09-45,12.55-88.56,29.74-131.17,48.51-16.15,7-31.22,14.36-45.7,22.17-1.92,0-3.77-.1-5.56,0a600.18,600.18,0,0,0-98.7,10.7A422.15,422.15,0,0,1,919.72,195.5Z" fill="#94d6c2"/><path d="M739.2,195.05c54-8.79,117.13-8.34,180.52.45A422.15,422.15,0,0,0,782.12,312a659,659,0,0,0-134.84,40.7C664.76,290.42,697.27,238.85,739.2,195.05Z" fill="#4af"/><path d="M886.38,301.27c119.14-1.35,226.73,32.67,314.83,120.64-202.84-28.75-383.84,55.59-500,198.32C691.33,473.1,755.53,371.63,886.38,301.27Z" fill="#e9f7f6"/><path d="M1290.77,444c.45.06.7.18,1.15.24,53.76,26.88,92.8,63.36,121.62,106.4a728.88,728.88,0,0,1-10.35,87.4c-3.25,17.42-8.76,37.52-20.25,50-25.63,27.69-51.32,55.52-77.07,83.15,2.49-10.65,4.48-21.24,6.21-31.63,9.09-31.66,16.83-63.5,18.05-95.35C1332.87,572.64,1319.31,506.49,1290.77,444Z" fill="#97f7d2"/><path d="M1598,608.54a484.83,484.83,0,0,0,20.79-101.62c35.85,112.81,16.47,225.88-49.93,331.19-47.31,75-92.92,154.1-170.18,204.39a498.33,498.33,0,0,1-90.79,47c62.63-50,116.27-109,159.13-176.86,14.55-23.29,24.24-53.23,25.32-80.56a280.6,280.6,0,0,0-.95-32c3.18-6.84,6.23-13.74,9-21,11.2-21,21.64-45.63,30.85-72.32,11.55-12.88,22.71-26,33.42-39.72C1578.28,649.57,1591.08,629.54,1598,608.54Z" fill="#fd4796"/><path d="M1223.5,425.51c22.87,4.05,44.89,12.11,67.27,18.45,28.54,62.53,42.1,128.68,39.36,200.17-1.22,31.85-9,63.69-18.05,95.35,16.33-101-5.8-194.55-81.86-286-9.47-11.27-19.18-21.71-29-31.58C1208.64,423,1216.07,424.1,1223.5,425.51Z" fill="#97f7ff"/><path d="M1201.21,421.91c9.83,9.87,19.54,20.31,29,31.58,76.06,91.44,98.19,185,81.86,286-3.56,12.19-7.13,24.38-10.82,36.51-42.68,45.65-86,90.67-131.39,133.41a143.63,143.63,0,0,1-23.51,17.49c-147,15.63-277.16-54-390.48-182.91a648.65,648.65,0,0,1-46-58.72,531.44,531.44,0,0,1-8.69-65C817.37,477.5,998.37,393.16,1201.21,421.91Z" fill="#fff8e7"/><path d="M880.82,301.25c1.79-.08,3.64,0,5.56,0-130.85,70.36-195,171.83-185.2,319-6,7.5-12,15-17.69,22.86-2.09-3.55-4-7.16-6-10.65a.13.13,0,0,0-.06-.19,399.57,399.57,0,0,1,21-162c19.72-57,46.95-111.16,83.66-158.3A600.18,600.18,0,0,1,880.82,301.25Z" fill="#b4eaea"/><path d="M636.32,230.62c26.45-17.32,62.11-29,102.88-35.57-41.93,43.8-74.44,95.37-91.92,157.6-6,2.46-11.9,4.79-17.68,7.51a303.66,303.66,0,0,0-99.88,73.45c-.14-11.47.18-22.87,1.06-34.47,2.79-34.73,12.14-65.63,24.38-95.91,13.83-14,27.8-27.9,41.7-41.69C608.48,249.8,622.43,239.83,636.32,230.62Z" fill="#71fcff"/><path d="M1413.54,550.6c33.57,50,53.31,109,65.7,172.66q3,15.27,5.92,30.92A738.6,738.6,0,0,1,1303.37,879.6c-15.89,7.76-31.53,14.37-47,20.27,3.51-6.52,7.33-13,10.64-19.82,8-19.35,17.44-38.34,24.11-58.19a494.58,494.58,0,0,0,14.75-50.75c25.75-27.63,51.44-55.46,77.07-83.15,11.49-12.44,17-32.54,20.25-50A728.88,728.88,0,0,0,1413.54,550.6Z" fill="#4fdecf"/><path d="M1485.16,754.18q23.89-22.53,46-47.34c-9.21,26.69-19.65,51.35-30.85,72.32-2.73,7.22-5.78,14.12-9,21C1490.12,784.78,1487.9,769.44,1485.16,754.18Z" fill="#fd80aa"/><path d="M647.28,352.65A659,659,0,0,1,782.12,312c-36.71,47.14-63.94,101.28-83.66,158.3a399.57,399.57,0,0,0-21,162c-42.57-81.11-58.77-170.55-32.36-272.58C645.8,357.31,646.6,355,647.28,352.65Z" fill="#b4eaea"/><path d="M647.28,352.65c-.68,2.36-1.48,4.66-2.16,7-26.41,102-10.21,191.47,32.36,272.58a.13.13,0,0,1,.06.19c.52,5.47,1,10.94,1.73,16.35A604.46,604.46,0,0,0,634.62,722c-65-83.18-104.56-183.41-104.9-288.37a303.66,303.66,0,0,1,99.88-73.45C635.38,357.44,641.3,355.11,647.28,352.65Z" fill="#9ff297"/><path d="M1485.16,754.18c2.74,15.26,5,30.6,6.23,45.94-48.67,100.66-159.33,171.07-293.9,213.16a249.87,249.87,0,0,1-29.83,7.29c33.93-34.26,63.81-74.6,88.71-120.7,15.47-5.9,31.11-12.51,47-20.27A738.6,738.6,0,0,0,1485.16,754.18Z" fill="#87abff"/><path d="M1197.49,1013.28c134.57-42.09,245.23-112.5,293.9-213.16a280.6,280.6,0,0,1,.95,32c-1.08,27.33-10.77,57.27-25.32,80.56-42.86,67.88-96.5,126.86-159.13,176.86-86.09,33.79-172.15,37.21-246.8,11.68,38.56-20.91,74.29-48.1,106.57-80.62A249.87,249.87,0,0,0,1197.49,1013.28Z" fill="#c36aff"/><path d="M1301.26,776c3.69-12.13,7.26-24.32,10.82-36.51-1.73,10.39-3.72,21-6.21,31.63C1304.42,772.78,1302.84,774.38,1301.26,776Z" fill="#97f7ff"/><path d="M492.41,370.43c19.93-23.2,41.14-45.45,62.75-67.2-12.24,30.28-21.59,61.18-24.38,95.91-.88,11.6-1.2,23-1.06,34.47-35.59,39.29-62.06,87.95-81.09,143.57-2.91,8.23-5.37,16.53-7.64,24.76-.15-2-.3-3.94-.32-5.85-2.12-55,13.14-111,23.94-165.78C468.71,409.2,478.54,386.77,492.41,370.43Z" fill="#f7e707"/><path d="M1301.26,776c1.58-1.61,3.16-3.21,4.61-4.88a494.58,494.58,0,0,1-14.75,50.75c-6.67,19.85-16.1,38.84-24.11,58.19-3.31,6.78-7.13,13.3-10.64,19.82-10.75,4.09-21.51,7.86-32,11.12,10.11-15.17,19.9-31.29,29.66-48.68,8.14-14.71,16.35-28.91,25.84-42.8,2.38-3.58,4.9-7.1,7.6-10.69,3.85-4.93,6.81-8.39,8.53-14.52C1297.5,788.24,1299.54,782.11,1301.26,776Z" fill="#cddfca"/><path d="M1301.26,776c-2.34,2.5-2.21,8.1-4.47,11.11-2.9,4-6.3,7.69-9.2,11.66a178,178,0,0,0-15.24,24.69c-6.24,12.79-11.39,26.26-18.34,38.86-9.76,17.39-19.55,33.51-29.66,48.68a428.88,428.88,0,0,1-78,15.9,143.63,143.63,0,0,0,23.51-17.49C1215.26,866.66,1258.58,821.64,1301.26,776Z" fill="#eee6c2"/><path d="M1296.79,787.1c2.26-3,2.13-8.61,4.47-11.11-1.72,6.12-3.76,12.25-5.28,18.31-1.72,6.13-4.68,9.59-8.53,14.52-2.7,3.59-5.22,7.11-7.6,10.69-9.49,13.89-17.7,28.09-25.84,42.8,7-12.6,12.1-26.07,18.34-38.86a178,178,0,0,1,15.24-24.69C1290.49,794.79,1293.89,791.07,1296.79,787.1Z" fill="#eee6c2"/><path d="M448.63,577.18c19-55.62,45.5-104.28,81.09-143.57.34,105,39.93,205.19,104.9,288.37a596.21,596.21,0,0,0-35,81.71c-15.45,45.33-16.72,90-9.11,133.44C486.33,853.47,447.09,734.58,441,601.94,443.26,593.71,445.72,585.41,448.63,577.18Z" fill="#fbb83a"/><path d="M683.49,643.09c5.72-7.81,11.64-15.36,17.69-22.86a531.44,531.44,0,0,0,8.69,65C700.25,671.38,691.45,657.43,683.49,643.09Z" fill="#fdedfd"/><path d="M1224.35,911c10.51-3.26,21.27-7,32-11.12-24.9,46.1-54.78,86.44-88.71,120.7a274.16,274.16,0,0,1-55.17,5C1153.49,1000,1190,962.13,1224.35,911Z" fill="#c3b0cf"/><path d="M677.54,632.44c2,3.49,3.86,7.1,6,10.65-1.45,2-2.83,3.85-4.22,5.7C678.57,643.38,678.06,637.91,677.54,632.44Z" fill="#9ff297"/><path d="M679.27,648.79c1.39-1.85,2.77-3.71,4.22-5.7,8,14.34,16.76,28.29,26.38,42.17.2.9.28,1.72.42,2.74,11.28,57.12,30.3,109.15,57,156.86-3.61-2.39-7.22-5.11-10.77-7.63C714.52,781.73,687.81,717.08,679.27,648.79Z" fill="#fdd090"/><path d="M710.29,688c-.14-1-.22-1.84-.42-2.74a648.65,648.65,0,0,0,46,58.72C869.2,872.93,999.4,942.52,1146.36,926.89c-35.61,21.4-78.9,25.59-122.51,13.48-61.37-16.83-122.19-35.76-183.32-53.73a574.76,574.76,0,0,1-73.23-41.78C740.59,797.15,721.57,745.12,710.29,688Z" fill="#efd1d1"/><path d="M1146.36,926.89a428.88,428.88,0,0,0,78-15.9c-34.36,51.14-70.86,89-111.86,114.62-73.45-.89-142.33-30.4-207.8-64.27-49.13-25.57-91.46-58.59-125.78-96.88-4-6.53-7.83-13-11.61-19.6a574.76,574.76,0,0,0,73.23,41.78c61.13,18,122,36.9,183.32,53.73C1067.46,952.48,1110.75,948.29,1146.36,926.89Z" fill="#d9b0cf"/><path d="M634.62,722a604.46,604.46,0,0,1,44.65-73.19c8.54,68.29,35.25,132.94,77.26,188.44A571.39,571.39,0,0,1,634.62,722Z" fill="#fdd090"/><path d="M599.66,803.69a596.21,596.21,0,0,1,35-81.71A571.39,571.39,0,0,0,756.53,837.23c7.08,9.31,14.41,18.43,22.38,27.23,48.41,77.94,119.11,143.81,213.81,201-63.08,6.25-136-5-222.62-31.29-47.8-14.63-93.36-40.36-136.3-66.55a425.82,425.82,0,0,1-43.25-30.46C582.94,893.68,584.21,849,599.66,803.69Z" fill="#fb906b"/><path d="M756.53,837.23c3.55,2.52,7.16,5.24,10.77,7.63,3.78,6.6,7.63,13.07,11.61,19.6C770.94,855.66,763.61,846.54,756.53,837.23Z" fill="#e8af81"/><path d="M1307.89,1089.51c-9.5,7.71-19.32,15.11-29.34,22.25-66.17,47.79-144.88,62.23-223.8,69.61-103.57,9.58-204.45-7.54-304.27-38.23a255.43,255.43,0,0,1-32.89-13.21,417.21,417.21,0,0,0,75.9,18.38c95.6,13.91,187.45-3.62,267.6-47.12C1135.74,1126.72,1221.8,1123.3,1307.89,1089.51Z" fill="#a792ff"/><path d="M1112.49,1025.61a274.16,274.16,0,0,0,55.17-5c-32.28,32.52-68,59.71-106.57,80.62-4.75-1.68-9.56-3.24-14.18-5.18-19-9.93-36.87-20.06-54.19-30.58C1036.91,1061,1076.38,1048,1112.49,1025.61Z" fill="#fb906b"/><path d="M778.91,864.46c34.32,38.29,76.65,71.31,125.78,96.88,65.47,33.87,134.35,63.38,207.8,64.27-36.11,22.42-75.58,35.43-119.77,39.82C898,1008.27,827.32,942.4,778.91,864.46Z" fill="#fb90c8"/><path d="M441,601.94c6.1,132.64,45.34,251.53,149.56,335.19,4.87,27.86,13.44,55.32,24.62,82,20.19,48.65,53.69,87,101.91,110.56C505.79,1056.59,380.55,821.93,441,601.94Z" fill="#fda47f"/><path d="M1046.91,1096c4.62,1.94,9.43,3.5,14.18,5.18-80.15,43.5-172,61-267.6,47.12a417.21,417.21,0,0,1-75.9-18.38l-.51-.25c-48.22-23.55-81.72-61.91-101.91-110.56-11.18-26.67-19.75-54.13-24.62-82a425.82,425.82,0,0,0,43.25,30.46c42.94,26.19,88.5,51.92,136.3,66.55,86.67,26.33,159.54,37.54,222.62,31.29C1010,1076,1027.87,1086.08,1046.91,1096Z" fill="#c46a90"/><text transform="translate(730 640.27)" font-size="42.72" fill="#0d000d" font-family="Nunito-Bold, Nunito" font-weight="700">hel<tspan x="61.78" y="0" letter-spacing="0em">l</tspan><tspan x="75.19" y="0">o@peop</tspan><tspan x="239.42" y="0" letter-spacing="0em">l</tspan><tspan x="252.84" y="0">emedicine</tspan><tspan x="452.35" y="0" letter-spacing="-0.02em">.</tspan><tspan x="462.18" y="0">o</tspan><tspan x="486.79" y="0" letter-spacing="-0.01em">r</tspan><tspan x="503.19" y="0">g</tspan></text></svg>