<svg xmlns="http://www.w3.org/2000/svg" width="703.17" height="678.59" viewBox="0 0 703.17 678.59"><path d="M270.08,634.56c1.34-12,3.56-23.77,7.84-35.19,4.94-13.19,9.17-26.65,13.73-40,3.31-9.66,7.06-19.2,9.85-29,2-7,2.75-14.35,1-21.58-.49-2-2-5.13-3.35-5.33a8.2,8.2,0,0,0-6.35,2.69c-3.27,4-6.56,8.32-8.55,13.05-4.3,10.26-7.74,20.87-11.63,31.3a105.17,105.17,0,0,1-5,11.94c-10.45,20.07-18.14,41.12-24.12,62.94-2.93,10.69-7.81,20.85-12,31.16a13.18,13.18,0,0,1-3.92,4.62c-5,4.14-10.6,2.86-12.23-3.33a27.65,27.65,0,0,1-.34-12.66c3.47-15.28,7.38-30.46,11.43-45.6,2.16-8.09,5-16,7.42-24,1.61-5.2,2.8-10.57,4.79-15.62q11.49-29.19,23.39-58.2a122.36,122.36,0,0,0,8.83-33.54c.21-2,.2-4.09.3-6.13.17-3.41-.49-6.6-4-7.87-3.29-1.19-4.95,1.66-6.61,3.71a92.7,92.7,0,0,0-16.08,28.34c-2.21,6.46-4.17,13-6.78,19.32a29,29,0,0,1-6.21,9.6c-5,4.84-11.57,3.14-13.21-3.54-1.29-5.2-2.21-10.93-1.34-16.1a101.5,101.5,0,0,1,6.69-22.06,135.52,135.52,0,0,0,8.83-32.83,33.28,33.28,0,0,1,13.13-22.37,35.15,35.15,0,0,1,20.73-7.37c24.54-.87,49.05.77,73.58.43,14.87-.2,27.85,4.9,39.1,15.14,8.54,7.78,15.3,16.11,16.77,27.9a34.32,34.32,0,0,1,.63,6.1c-.65,10.66-.44,21.52-2.43,31.94-3.29,17.16-7.94,34.08-12.22,51-1.61,6.37-5.57,11.45-10.61,15.54-4.61,3.74-7.22,3.25-10.87-1.32-5.14-6.44-6.8-14-5.84-21.85.9-7.39,3.17-14.61,4.67-21.94,2.52-12.24,5-24.49,7.25-36.78.68-3.76,1.16-8.24-2.52-10.69-3.89-2.59-7.52.52-10.64,2.48-5.44,3.44-8.24,9.07-9.85,15.07-2.87,10.75-5.33,21.62-8,32.44-3.68,15-7.2,30.07-11.09,45-3.84,14.74-8.09,29.37-12.06,44.07-1.66,6.15-3.28,12.32-4.53,18.56-2.84,14.15-8.1,27.47-13.56,40.73-2.9,7.06-8.29,11.31-15.48,13.27-7.47,2-13-2-12.49-9.68.59-9.5,2-19,3.1-28.44C269.41,638.14,269.78,636.35,270.08,634.56ZM308.79,522q0,.42-.12.81c-.71,3.72-3.95,7.89-5.31,11.54-3,8-4.87,16.35-7.73,24.38-7.6,21.39-17.15,42.2-21.06,64.77-2.09,12.09-3.74,24.27-5.29,36.45a30.66,30.66,0,0,0,.54,10.15c1,4.43,4,5.85,8.27,4.36A20.8,20.8,0,0,0,290.14,664c5.83-11.2,9.07-23.29,12.39-35.34s6.22-24.18,9.3-36.29q4-15.86,8-31.73c3.42-13.43,6.94-26.84,10.26-40.3,3.26-13.23,6-26.61,9.62-39.74,1.93-7,5.37-13.7,12.51-17.11,4.42-2.1,9.14-5.33,14.06-1.69,4.53,3.35,4.88,8.65,4.22,13.7a192.59,192.59,0,0,1-3.7,20.82c-2.47,10.16-5.56,20.16-8.25,30.28-2.34,8.84-2.27,17.64,1.88,26,2.81,5.64,5.15,5.83,9.9,1.84,6.75-5.67,8.83-13.54,10.64-21.59,2-9.09,3.61-18.31,6.26-27.22,4.42-14.84,4.54-30.1,4.86-45.27.12-5.86-1.42-12.79-4.69-17.52-11.53-16.66-26.95-27.59-48.3-27.58H318.65c-9.08,0-18.24.77-27.24-.13a91.56,91.56,0,0,0-34.4,3.11c-11.8,3.33-18.47,10.92-20.62,22.8-.17.89-.31,1.8-.52,2.68-2.78,11.48-5.08,23-10.25,33.9-2.77,5.83-4.15,12.53-5.06,19-.61,4.35.36,9.06,1.29,13.46.67,3.18,2.85,3.81,5.79,2.42,3.52-1.67,5.52-4.65,6.71-8.23s2.31-7.38,3.5-11.05c5-15.27,11.62-29.65,22.26-41.91,3.94-4.55,7.94-4.58,11.87-.08,3.42,3.92,3.94,8.54,3.42,13.47a114.32,114.32,0,0,1-8.3,33c-11.11,26.16-22.89,52.05-30.83,79.45-1.32,4.57-3.61,8.87-4.82,13.47Q224.73,616,218.51,641.5a50.14,50.14,0,0,0-1.09,10.1c-.11,3,.4,6.12,3.54,7.55,2.29,1.05,5.9-1.66,7.77-5.47.3-.61.47-1.28.73-1.92,1.27-3.16,2.7-6.27,3.82-9.48,3.2-9.22,6.62-18.37,9.33-27.73a262,262,0,0,1,15.18-40.17c4.39-9.23,9.34-18.16,12.22-28.08,2.36-8.12,6.17-16.08,8.05-24.3,1.79-7.82,6.91-13.78,13.51-18.28,8.86-6,14.49-4.3,15.71,6.41C307.67,513.59,309.14,518.39,308.79,522Z" fill="#0d000d"/><path d="M324.22,394.82c-3.28-.9-6.63-1.62-9.83-2.75-12.33-4.34-18.86-14.78-17.57-28a59.75,59.75,0,0,1,1.37-8.74c2.72-10.85,8.88-15.84,20-15.64a209,209,0,0,1,21,1.69c7.55.9,13,4.91,16.26,11.92,3.05,6.64,5.73,12.95,3.23,20.84C354.35,388.08,341.45,397,327,395c-.9-.12-1.79-.29-2.69-.43Zm2-48.95,0-.72a90,90,0,0,0-10.11-.27c-8.29.65-12,3.56-13.89,11.62a37.55,37.55,0,0,0-.94,13.49c.86,6.07,2.73,12.56,9,15.26a64.87,64.87,0,0,0,18.23,5.16c13.77,1.53,33.64-14.64,23.62-33.62-4.27-8.1-9.77-11.43-19.13-10.55A44.18,44.18,0,0,1,326.23,345.87Z" fill="#0d000d"/><path d="M308.19,448.45a36.46,36.46,0,0,1,5.29-.36c3.35,0,7.23,1,9.12,4,2.61,4.16,4.85,8.54,5,13.84,0,1.22-1,3.25-1.91,3.65-1.72.73-2.29-1.07-2.55-2.72s.17-3.38,0-5.11a2.74,2.74,0,0,0-1-2.23,2.81,2.81,0,0,0-1.52-.3.93.93,0,0,0-.44.07.78.78,0,0,0-.29.42c-.7,1.83-.49,4.09-.79,6-.38,2.51-.94,5-1.48,7.5-.76,3.44-1.68,6.84-2.53,10.26-.51,2-.45,5.71-1.63,7.37-.91,1.28-3,1.05-4.14-.05-4.89-4.77.68-18.67,1.72-24.47a25.36,25.36,0,0,0-.07-4.47c-2.78,1.32-3,3.74-3.73,5.87-2.5,7.66-5.09,14.71-9.24,21.64a4.37,4.37,0,0,1-1.66,1.82,1.57,1.57,0,0,1-2.14-.61,2.5,2.5,0,0,1,.36-1.89c3-6.63,4.34-14.87,6.62-21.9a37.29,37.29,0,0,1,2.17-4.77,36.63,36.63,0,0,0,1.71-4.81c.42-1.31.61-3.67-1.4-3.65a10.74,10.74,0,0,0-2.31.8c-1.1.32-2.21.63-3.32.92s-2,.25-3,.58c-1.23.41-2.41.95-3.62,1.41-.72.28-1.84.33-2-.44a1.22,1.22,0,0,1,.11-.67c1.56-3.94,5.78-4.69,9.42-5.69A71.16,71.16,0,0,1,308.19,448.45Z" fill="#0d000d"/><path d="M307.58,442a6.16,6.16,0,0,0,4.46,2.28,3,3,0,0,0,1.16-.09,3.41,3.41,0,0,0,1.09-.63,7.7,7.7,0,0,0,2.57-3.25,4.51,4.51,0,0,0-.34-4C312.9,431,303.34,436.49,307.58,442Z" fill="#0d000d"/><path d="M574.46,302.17c.77-4.53,3.74-5.83,6.71-7.05,9.35-3.82,19.14-5.76,29.11-7,12.41-1.53,25-2.39,37.14-5.09,10.13-2.25,19.79-6.68,29.6-10.3a13.57,13.57,0,0,0,4.47-3c2.6-2.47,4.21-5.48,3.13-9.19a9.54,9.54,0,0,0-7.68-7,52.61,52.61,0,0,0-8.14-.85c-22.71-1.1-45.42-2.21-68.14-3.16-5-.22-10,0-15,.27-16.59.81-33.16,1.91-49.75,2.53-15,.57-29.94,2.85-44.94.54a61,61,0,0,1-9.3-2c-5.24-1.65-6.54-3.73-5.9-9.17s3.46-10.1,8.34-12.62a145.68,145.68,0,0,1,17.53-7.33c7.47-2.7,15.27-4.55,22.56-7.65a28.52,28.52,0,0,0,10-7.88c3.25-3.85,1.88-7.32-3-8.78a22.43,22.43,0,0,0-8.07-.82c-16.6,1.31-33.29,3.13-48.86,9-12,4.54-23.48,11-34.45,17.76-8.37,5.18-10.49,14.48-10.68,24a203.44,203.44,0,0,0,3.63,44.8c.45,2.22.68,4.49.93,6.75,0,.35-.37.75-.94,1.83-.87-1.57-1.83-2.69-2.16-4-2.92-11.49-5.25-23.07-4.93-35,.13-4.77-.33-9.55-.33-14.33,0-13,4.75-23.63,16.65-29.93,14.85-7.87,29.34-16.86,46.22-19.8,13-2.26,26.12-3.68,39.21-5.25a14.11,14.11,0,0,1,6.65,1c6.31,2.54,7.61,7.22,4.19,13.12A22.82,22.82,0,0,1,527,216.15c-8.37,3.5-17,6.44-25.49,9.63a121.71,121.71,0,0,0-12.05,4.69,17.9,17.9,0,0,0-6.16,5.21c-4.33,5.88-2.73,10.79,4.35,11.86a152.61,152.61,0,0,0,25.07,1.8c16.6-.28,33.18-1.37,49.78-2,15.23-.57,30.47-1.53,45.69-1.31,21.6.33,43.19,1.58,64.78,2.45a33,33,0,0,1,4.08.4c5.31.89,9.42,3.42,11.09,8.83,1.73,5.61-.09,10.36-4.22,14.2a18.37,18.37,0,0,1-5.73,3.62c-18.68,7.24-37.38,14-57.89,14.78-10.08.4-20.1,3.5-30.06,5.75-3.15.72-6,2.63-10.18,4.5,2.59,2.08,3.95,3.59,5.64,4.47a155.68,155.68,0,0,0,29.54,12.26c20.58,5.8,41.1,11.9,61.43,18.5,7.28,2.37,14.17,6.21,20.87,10s7.47,11.14,2,16.54a21.91,21.91,0,0,1-9.2,5.5,64.63,64.63,0,0,1-16.77,2.49c-28.48-.07-56.75-2.9-85-6.39-23.45-2.89-47.1-4.68-70.8-2.83a48.83,48.83,0,0,0-12.68,2.36c-7.55,2.73-8.38,7.87-2.48,13.37,8.79,8.2,19.56,13.15,30.3,18.16,11.75,5.48,23.41,11.14,35.07,16.81a12.58,12.58,0,0,1,3.73,2.92c4,4.49,3.29,8.9-2.14,11.65-6.75,3.41-14.22,3.65-21.4,2.84-16-1.8-32.05-4-47.93-6.81-7.31-1.3-14.43-4.12-21.39-6.89-8.42-3.34-17.09-6.54-24.75-11.26-14.21-8.76-23.72-21.43-28.57-37.72-5.39-18.09-6.31-36.71-7.88-55.29a75.44,75.44,0,0,1-.73-8.83c0-1.22,1.48-2.38,2.28-3.57.94,1,2.57,2,2.7,3.1a139.36,139.36,0,0,1,.95,14.29c.27,16,1.95,31.81,6.48,47.21q9.25,31.44,39.55,44.15c26.74,11.21,54.71,16.85,83.59,18.06a51.5,51.5,0,0,0,12.79-1.58c1.45-.31,3.38-2,3.61-3.37s-1.11-3.24-2.18-4.54a10.12,10.12,0,0,0-3.47-2.09q-23.38-11.19-46.77-22.35a63.44,63.44,0,0,1-19.25-13.91c-5.83-6.27-5.36-11.3,1.93-15.59,3.8-2.24,8.37-4.12,12.69-4.35,12.24-.65,24.6-1.2,36.79-.27,26.31,2,52.52,5.23,78.81,7.47,17.44,1.49,34.9,3.3,52.46,2,5.57-.41,10.83-1.6,15.29-5.12,5.31-4.19,5.5-9.2-.12-12.72a78.14,78.14,0,0,0-17-8.47c-22.5-7.27-45.19-13.95-67.77-21-11.75-3.66-23.29-7.87-33.32-15.3A29.93,29.93,0,0,1,574.46,302.17Z" fill="#0d000d"/><path d="M527.17,291.17c-1.54,2.63-2.95,5-5,8.58,8.67-1.22,16.42-2.29,24.17-3.41,1.56-.23,3.08-.91,4.64-1,3.1-.12,5.47,1.79,5.16,4.11-.38,2.93-2.45,3.19-5,3.16-8.13-.09-15.38,3.15-23.21,6.12,2.14,3.27,5.09,2.56,7.53,3.08,6.64,1.4,13.29,2.71,19.91,4.18a9.43,9.43,0,0,1,3.64,1.77c.8.63,1.83,2,1.63,2.65-.31,1.1-1.45,2.58-2.44,2.75a21.21,21.21,0,0,1-6.7,0c-11.18-1.62-22.34-3.39-35-5.33,4.25,4.73,9.47,6.77,11.11,11.72-1,2.9-3.25,2.92-5.1,2.12q-11.53-5-22.86-10.48c-2.69-1.31-3.44-4-3.31-7,.16-3.61.21-7.22.11-10.82-.08-2.91.49-5.48,3-7.18,7.49-5.06,15.4-8.76,24.81-6.72A14.36,14.36,0,0,1,527.17,291.17Z" fill="#0d000d"/><path d="M359.33,353.49c-10.28,1.9-19.9-6.09-22.73-14.66-.41-1.27-.57-2.9-1.46-3.69-6.28-5.6-5.6-12.38-3.5-19.39,4-13.28,12.38-22,26.21-24.95,3.11-.67,6.28-1.18,9.3-2.14,6.08-1.93,11,.07,14.41,4.87a134.64,134.64,0,0,1,11.26,18.57c3.45,7.08,2.24,14.71.11,22-.66,2.26-2.13,4.88-4,6.1C379.75,346.12,370.3,351.58,359.33,353.49Zm9.58-60.94c-4.76,1.3-8.23,2.4-11.76,3.19-11.73,2.63-18.24,10.43-21.44,21.49-.48,1.62-1,4.19-.18,5.07,3.9,4.12,4.07,9.52,5.59,14.41,3.68,11.85,13,16.53,24.42,11.8,4.6-1.9,8.94-4.43,13.54-6.33,8.1-3.33,10.67-9.69,11-17.87.54-11.78-6.08-20.21-13-28.29C375.18,293.82,371.15,293.44,368.91,292.55Z" fill="#0d000d"/><path d="M470.51,308c-.27-4.4,2.37-7.86,6.32-8.28,4.62-.5,12.14,4.76,12.47,8.7.31,3.75-5.1,9.4-9.19,9.61S470.81,312.72,470.51,308Z" fill="#0d000d"/><path d="M275.26,235.81c3.16.05,3.77,2.7,3.18,6-1.25,6.93-2.12,14-3.89,20.76-7.57,29-21.08,55.18-39.24,78.95a89,89,0,0,1-13,13.86c-10,8.44-22.24,10.22-34.7,9.76-15.38-.56-30.18-3.68-43.52-12.17-6.32-4-13.34-6.92-19.81-10.73-6.64-3.91-13.05-8.24-19.46-12.54-5.51-3.71-7.76-9.49-8.67-15.68-1.27-8.62,5.67-14.87,14-12.27,9.09,2.85,17.89,6.64,26.86,9.93,6,2.18,11.87,4.65,18,6.16,3.79.93,8,.3,11.79.37,1.8-4.1-.11-6.52-1.63-9-3.73-6-9.53-9.94-15.52-13.06-8.84-4.61-18.19-8.25-27.35-12.24-7.71-3.36-15.47-6.59-23.17-9.94S83.62,267.43,76,263.79a224,224,0,0,1-68.81-50.7A66.14,66.14,0,0,1,3,207.77c-7.09-9.55-.27-17.36,7.83-17.83,11.59-.67,23.44-.28,33.76,6.07,14.53,8.94,28.79,18.32,43.05,27.68a56.77,56.77,0,0,0,20.56,8.83c8.51,1.63,13.74-3.14,12.93-11.79-1-11.23-6.33-20.79-12.4-30-7.83-11.83-17.65-22-27.72-31.85-4.38-4.3-8.59-8.78-12.78-13.26a20.93,20.93,0,0,1-3.14-4.45c-3.48-6.6-.44-12.45,7-13.39a29.1,29.1,0,0,1,19,4.37c9.93,6,20,11.84,29.29,18.72,20.29,15,40.06,30.72,60.19,45.94,10.68,8.09,21.23,16.54,34.6,20,.88.23,1.73.57,2.62.78,6.09,1.46,8-.14,7.36-6.55-.75-7-4.08-13.1-8.36-18.42-5.69-7.06-12.06-13.58-18.08-20.39a104.85,104.85,0,0,1-7.81-9.44,27.49,27.49,0,0,1-3.29-7.42c-1.44-4.59-.18-8.56,3.58-11.6,3.6-2.9,7.55-2.71,11.6-1.05a8.14,8.14,0,0,1,1.2.64c15.38,9.25,30.64,18.72,46.17,27.72s22.14,23.62,24.51,40.42C275.68,219.14,275.08,226.94,275.26,235.81Zm-.84,4.51c-2.09.78-2.5.94-2.91,1.08L266.92,243c.15-1.62-.23-3.58.55-4.8a24.94,24.94,0,0,0,3.72-14.33c-.1-5.44-.24-11-1.47-16.28-2.61-11.15-6.18-22-16-29.27-5.86-4.31-11.64-8.77-17.85-12.5-10.14-6.08-20.6-11.64-31-17.37a21.74,21.74,0,0,0-5-2.19c-5.5-1.43-9.31,1.9-8,7.34a24.42,24.42,0,0,0,3.95,8.55,82.25,82.25,0,0,0,8.94,10.27c7.63,7.55,14.82,15.41,20.24,24.76,3.13,5.4,5.5,11,5.17,17.4-.31,6.07-2.72,8.27-8.68,7.74a49.39,49.39,0,0,1-8-1.68c-12.25-3.19-21.82-11.12-31.59-18.5-17.6-13.28-35.14-26.67-52.28-40.55-12.46-10.09-26.25-18-39.88-26.24-4-2.37-8.81-3.58-13.42-4.34a9.61,9.61,0,0,0-7.23,2.52c-2.3,2.27-.51,5.29,1.21,7.39a171.4,171.4,0,0,0,13,14.77c10.53,10.11,20.68,20.55,28.84,32.68,6.38,9.47,12,19.37,13.34,31.06,1.26,11.12-6.27,19-17.22,16.85a54,54,0,0,1-17.65-6.81C76.9,221,63.54,211.94,50.19,202.85c-10.58-7.21-22.43-9.64-34.87-10.26a11.75,11.75,0,0,0-2.72.17c-7.82,1.51-10.11,6.1-5.78,12.68a62.84,62.84,0,0,0,9.67,11.42C30.36,229.71,44.76,242,61.35,251.22c9.91,5.51,20.24,10.33,30.61,14.94C105,272,118.47,277,131.55,282.83c9.12,4.06,18,8.62,26.79,13.44a31.17,31.17,0,0,1,14.11,16.16c2.34,5.93.94,8.61-5.15,9.94a33.57,33.57,0,0,1-8.79.53c-7.89-.43-14.94-3.71-22.06-6.78-7.94-3.41-15.92-6.75-23.95-9.93-3.5-1.39-7.21-1.82-10.18,1.28-2.82,2.95-1.6,6.4-.69,9.68a20.33,20.33,0,0,0,9.82,12.58c9.27,5.3,18.8,10.18,27.9,15.76,14.79,9.09,30.35,15.63,48,15.84,13.74.17,26.48-2.15,36.74-12.91,12.41-13,21-28.51,30-43.76,8.31-14.05,12.19-29.85,16.9-45.27C272.75,253.64,273.18,247.48,274.42,240.32Z" fill="#0d000d"/><path d="M266.83,312.93a14.41,14.41,0,0,1,9.65-7.15c2.87-.68,5.65-1.75,8.5-2.53,12.84-3.48,23.36,1,31.92,10.25a20.37,20.37,0,0,1,5,17.16c-.45,3.11-.64,6.28-1.33,9.33-4,17.54-32.86,28.25-48.47,13.22A32.24,32.24,0,0,1,266.83,312.93ZM278.6,352c13.65,9.43,36.62-.53,37.19-15.83.09-2.47.94-4.91,1.21-7.38,1-9.39-3.33-16.1-12-20-10-4.48-19.5-2.74-28.94,1.46a8.51,8.51,0,0,0-3.21,2.44C262.65,326.2,265.27,344,278.6,352Z" fill="#0d000d"/><path d="M195.45,252.78c-2.83-5.52-5.65-11.05-8.53-16.68,3.58-2.31,5.93-.6,7.22,1.81a144.58,144.58,0,0,1,8.34,17.79c.8,2.15.15,5.53-1.09,7.59a47.89,47.89,0,0,1-8.17,9.81c-2.07,1.95-4.92,4.14-7.51,4.25-6.27.27-12.6-.55-18.89-1.12-.9-.08-1.71-1.16-2.8-2,3.31-4.65,6.84-.52,10-.88s6.53-.41,9.8-.59l.18-1.55a30.76,30.76,0,0,0-3.8-1.72c-9.12-2.78-18.29-5.42-27.4-8.23-6.5-2-9.5-4.52-12.9-10.44,1.68-3.06,4.32-2.58,7-1.64,4.28,1.51,8.47,3.27,12.79,4.66a43.1,43.1,0,0,0,9.25,2.14c4.16.38,6.07-2.26,4.18-6-1.39-2.74-3.73-5.05-5.83-7.38-2.58-2.86-5.48-5.44-8-8.37-.69-.81-.93-3.26-.5-3.52,1.15-.7,3-1.2,4.14-.71,1.79.78,3.24,2.38,4.77,3.71,8.35,7.25,16.3,15,26.39,19.95Z" fill="#0d000d"/><path d="M211.55,271.6c2.64,1.51,3.15,3.39,1.76,5.8-2.38,4.12-8.51,5.87-12.45,3.55a6.11,6.11,0,0,1-2.54-8.16C200.47,269.1,206.81,268.6,211.55,271.6Z" fill="#0d000d"/><path d="M381.1,157.29a57.73,57.73,0,0,1,5.19,4.67c5.7,6.45,6.36,14.52,6.18,22.49-.28,12.47-.67,25-2.08,37.36-1.71,15-8.93,26.74-22.42,34.63-5.34,3.13-10.58,5.82-16.58,7.32-3,.76-5.69,2.82-8.67,3.85q-9.68,3.31-19.5,6.15c-17.3,5-34.63,9.54-53,8.34-6.53-.43-12.57-1.47-17.9-5.48-10-7.52-20.9-14.18-28-24.68a138.42,138.42,0,0,1-13.58-25.08c-5.34-13-9.44-26.56-14.14-39.86-2.24-6.32-3.47-12.73-2.5-19.43.69-4.83,1.79-5.57,6.73-5.66,11.79-.22,18.78,6.35,24,16.1q9.43,17.75,19.59,35.11a22.67,22.67,0,0,0,6.62,6.72c5.35,3.76,8.34,2.39,9.24-4.08a100.33,100.33,0,0,0-.58-32.57c-3.07-16.42-9.18-31.87-14-47.74-6.93-22.83-14.13-45.7-15.79-69.75-.83-12-1.81-24.07.82-36,2.05-9.33,9-12.11,16.64-6.4a32.08,32.08,0,0,1,11.88,16.27c1.63,5.2,3.5,10.43,4.26,15.79,1.57,11,5.82,21.12,11.2,30.56S286.83,104,293,112.94a12.13,12.13,0,0,0,1.9,2c4.42,4.1,7,3.84,10.31-1.33a41.92,41.92,0,0,0,3.1-6.81c6.4-16,7.37-32.7,6.14-49.67-1.13-15.68.7-30.89,7.59-45.24.78-1.64,1.62-3.26,2.5-4.85,2.05-3.69,4.41-7.2,9.24-7,5.33.23,9.71,2.49,12,7.56,4.08,8.92,7.95,18,8.16,28,.42,20,1,40,.61,60-.34,20.22-2.15,40.42-2.36,60.64-.12,11.3-.44,22.84,2.87,33.89a46.58,46.58,0,0,0,5,11.09c2,3.24,4.36,3.31,6.47.2a38,38,0,0,0,5.46-10.86c1.61-5.89,2.11-12.08,3.34-18.09,1-4.82,2.37-9.56,3.58-14.34Zm3.07,8.7-2,.12a10.38,10.38,0,0,0-1.64,2.73c-.62,2.87-1.05,5.78-1.43,8.69-1.28,9.74-2.74,19.45-8.91,27.56-3.76,4.95-8.34,5.14-12.72.77a26.69,26.69,0,0,1-3.21-4.4C350,195,348.52,187.55,348.46,180c-.16-18.42-.38-36.85.28-55.25,1-28.63,2.51-57.24,1.06-85.9a74.24,74.24,0,0,0-6.44-27c-1.81-4-4.16-7.17-8.77-7.54s-6.06,3.5-7.85,6.55c-7.65,13-10.21,27.3-9,42.05,1.65,20-.07,39.53-6.62,58.52a28.83,28.83,0,0,1-5.33,9.28c-2.86,3.28-6.3,3.47-9.67.72a73.65,73.65,0,0,1-9.55-9.55c-2.49-2.94-4.39-6.36-6.57-9.56C269.41,86.7,261.37,70,257.9,51.35c-.49-2.68-1.22-5.32-1.86-8a30.23,30.23,0,0,0-9.79-16c-2.31-2-4.66-3.82-7.92-2.81-3.45,1.07-3.74,4.2-4.35,7.11-3.56,17-1.8,34,1.25,50.84,4.8,26.44,12.63,52.11,22,77.27C264,178,265.31,197,265,216.14a15.36,15.36,0,0,1-.46,3.37c-1.74,7.4-6.54,9.58-13.21,6a25.9,25.9,0,0,1-10.69-10.26C233.9,203.19,227,191.15,220.41,179c-3.92-7.21-8.6-12.73-17.8-12.45-3.3.1-4.89,1.36-4.71,4.29a66.18,66.18,0,0,0,1.8,13.42c1.93,7,4.45,13.85,7,20.68,3.37,9.17,6.63,18.4,10.55,27.33,4.21,9.62,9.59,18.62,17.76,25.57,4.85,4.13,9.65,8.31,14.61,12.3a35.13,35.13,0,0,0,21.4,7.68c26.35,1,50.72-6.46,74.55-16.54,6-2.54,11.77-5.54,17.59-8.38,12-5.82,18.68-15,21.62-27.23,3.92-16.3,3.18-33,2.44-49.58C387,172.66,385.22,169.35,384.17,166Z" fill="#0d000d"/><path d="M288.2,321c-.54-5-1.35-10.32,1.46-15.55,2.5-4.64,5.76-8.07,10.82-9.77A56.85,56.85,0,0,0,310,292c6.66-3.66,13.63-3,20.63-1.95A17.64,17.64,0,0,1,343,297.76c7.07,10.36,8.69,21.26,3.67,32.91a11.71,11.71,0,0,1-7.24,6.75,60.52,60.52,0,0,0-8,3.78,36.34,36.34,0,0,1-19.79,4.12C299.69,344.55,290.56,335,288.2,321Zm36.43,13.87c3.86-.74,7.15-1.49,10.48-2,6.16-.92,8.63-5.16,10-10.6,1.9-7.64-.33-14.34-4.45-20.66-2.78-4.27-6.63-6.39-11.75-7.19-9.56-1.49-17.85,2.14-26.31,5.45-6.2,2.43-9.35,7.09-9.71,13.54a39.62,39.62,0,0,0,.57,10.15,21.1,21.1,0,0,0,21.49,17.3C319.55,340.76,324.33,340.82,324.63,334.84Z" fill="#0d000d"/><path d="M305.35,170.4c.62-7.75,1.21-14,1.6-20.29.23-3.81,1.09-7.13,4.73-9,3.4.82,3.75,3.21,3.68,5.86-.18,6.34-.41,12.68-.52,19a47.19,47.19,0,0,0,1.34,13.79c.76-1.71,1.47-3.44,2.31-5.11a34.48,34.48,0,0,1,3.29-5.89,4.29,4.29,0,0,1,3.45-1.16,3.14,3.14,0,0,1,1.89,2.47c-1.29,10.5-1.31,21.48-9.38,29.79-2.89,3-6.1,4.85-10.92,3.81-4.34-.94-9,0-12.71-3.61-4.67-4.52-8.56-9.41-9.91-15.94-.61-2.94-.91-5.81,1.55-8.54,5,.57,5.16,5.19,7,8.24s2.55,6.78,6.81,9.15a35.36,35.36,0,0,0-.33-4.9c-2.23-9.74-4.64-19.44-6.75-29.2a20.9,20.9,0,0,1-.25-8c.51-2.76,3.61-3.46,5.09-1.09,1.74,2.78,2.58,6.16,3.62,9.35S300.89,166.55,305.35,170.4Z" fill="#0d000d"/><path d="M298.83,218.37c-.39-2.56,2.72-9.67,5-10.7a5.48,5.48,0,0,1,3.83-.06c6.3,2.41,7.87,10.92,3.07,15.72-1.87,1.87-4,2-6.26,1.26A7.93,7.93,0,0,1,298.83,218.37Z" fill="#0d000d"/><path d="M461.89,232.62c2.24-.64,4.67-.93,6.7-2,12.09-6.3,24.1-12.77,36.12-19.22,4.59-2.46,8.94-5.67,14.45-5.54,1.88,0,4.26.49,5.48,1.69,2,2,.21,4.12-1,6.07-5.1,8.22-11.85,14.82-19.47,20.69-6.26,4.83-12.42,9.85-18.29,15.15-8.76,7.93-17.18,16.23-25.82,24.28-4.65,4.34-9.18,8.86-14.25,12.64-5.25,3.91-11.06,7.08-16.67,10.49-2.15,1.31-3.9,1.06-6-.83-5.78-5.1-12-9.73-17.92-14.65-14.89-12.34-30-24.43-44.46-37.24-6.92-6.13-12.67-13.61-18.81-20.6-3.23-3.67-3.55-8.45-3.34-12.94.6-12.11,2.81-23.83,8.8-34.71,8-14.57,16.35-28.93,26.71-41.95a39.93,39.93,0,0,1,10.35-8.67c7.48-4.62,15-.94,15.67,7.94.34,4.36-.82,9-2.18,13.26s-4.13,8.12-5.75,12.35c-1.72,4.51-4.25,9.15-1.25,14.44a12.74,12.74,0,0,0,9-4.44c3.34-4,6.54-8.15,9.81-12.21,8.56-10.62,16.83-21.49,25.78-31.78,8.2-9.41,17.14-18.18,25.72-27.27,1.56-1.65,2.9-3.5,4.41-5.21C474,82.82,482,72.78,491.05,63.89c7.92-7.76,17-14.35,25.81-21.14,2.43-1.87,5.65-2.85,8.65-3.79s6-1.06,8,1.93c1.88,2.81,2.46,6,.91,9.07a62.05,62.05,0,0,1-5.13,8.84c-6,8.27-9.56,17.59-11.91,27.37-1.78,7.39-2,14.72,1.91,21.88,5.83,10.8,25.33,18.59,39.73,10.64,6.12-3.38,11.61-7.92,17.32-12,5.34-3.83,10.35-8.2,16-11.53,2.93-1.73,6.85-2,10.37-2.34A5.41,5.41,0,0,1,607,95.28c.51,1.07-.7,3.13-1.47,4.57-.62,1.18-1.87,2-2.6,3.14-9.83,15.32-24.6,25.34-38.7,36.07-3.8,2.89-7.86,5.43-11.58,8.41-16.67,13.36-33.25,26.82-49.88,40.22-5.48,4.42-11.26,8.52-16.43,13.28a150.42,150.42,0,0,0-13.42,14.44c-4.18,5-7.89,10.4-11.8,15.63ZM601.57,98.73,600.72,97c-2.85,1.11-6,1.8-8.49,3.44-4.74,3.1-9.17,6.69-13.63,10.19-3.75,3-7.2,6.31-11.09,9-9.15,6.43-19,9.33-30.29,6.11C520.8,121.1,509.47,109,513,90.38c2-10.35,6.27-19.89,11.49-29,2-3.55,4.59-6.85,6.24-10.56a8,8,0,0,0-.32-6.27c-.49-.88-3.87-1-5.42-.26a70.51,70.51,0,0,0-10.48,6.19,67.62,67.62,0,0,0-7.32,6.1c-7.51,6.93-15.23,13.66-22.34,21s-13.22,15.66-20.45,22.86a475.16,475.16,0,0,0-42.57,47.9q-6,7.86-11.85,15.83c-4.48,6.12-9.32,11.79-16.56,14.82-5.56,2.32-7.27,1.38-8.15-4.67A28,28,0,0,1,389,155.94c1.91-3.36,4.11-6.66,5.34-10.27a28.91,28.91,0,0,0,1.79-11.21c-.45-5.5-4.54-7.72-9.19-4.88s-9.48,6.06-12.37,10.38c-8.22,12.25-15.46,25.16-23.15,37.78-5.36,8.79-7.38,18.58-8.18,28.58-.6,7.41.62,14.51,7.47,19.37,1.77,1.27,2.89,3.45,4.34,5.18,2.61,3.13,4.92,6.61,7.94,9.28,7,6.15,14.35,11.88,21.53,17.83q17.87,14.77,35.67,29.61c4.15,3.47,8.77,4.25,13.27,1.51,6.76-4.11,14-7.94,19.56-13.39,15.44-15.1,30.56-30.51,47.56-43.92,2-1.55,4.07-2.92,6-4.49,5.4-4.36,9.73-10.56,10.67-15.53-4.65.19-8.15,2.63-11.92,4.64q-19.53,10.44-39.27,20.5a13.37,13.37,0,0,1-6.5,1.65,9.39,9.39,0,0,1-5.91-2.5c-1.84-2-.27-4.35,1.27-6.08,8.6-9.68,16.3-20.47,26.12-28.72,26.1-21.93,53.14-42.73,79.76-64,9.22-7.39,18.48-14.75,27.36-22.54C593.4,110.09,598.45,105.13,601.57,98.73Z" fill="#0d000d"/><path d="M335.26,329.6c-6.58-3.4-10.54-9.25-14.33-15.19-6.14-9.64-4.79-23.9,2.87-32.32s21-10.69,31.29-5.37c2.14,1.1,3.79,3.15,5.67,4.76,2.41,2.06,4.77,4.2,7.25,6.18,6.2,4.91,9.35,11.74,11,19.08a15.07,15.07,0,0,1-1.49,9.73c-4.09,7.45-10.14,13.26-17.38,17.86-6.47,4.1-12.7,4.44-18.95-.27ZM358.92,286c-.91-.68-1.83-1.34-2.72-2-8.41-6.64-18.32-7.17-26.3-.71-7.67,6.22-10.27,15.11-5.76,25.93,4.13,9.91,11.57,17.27,21.48,21.92a12.54,12.54,0,0,0,10.51.39c6.88-2.7,11.42-8,15.83-13.57,3.14-3.94,3.42-8,1.8-12.79C371,297,365.42,291.2,358.92,286Z" fill="#0d000d"/><path d="M425.2,191.19c4.52-4.36,8.73-8.14,12.59-12.25S445,170.19,449,166.07s6.5-9.27,12.5-11.32c4,5.79-4.12,9.42-1.9,14.92,5.1-.49,7.62-7,13.21-6.4,2.31,2.91.69,4.66-1.42,6.37q-11.62,9.42-23.22,18.9c-1.43,1.18-2.71,2.55-4.06,3.83l.86,1.19a70.76,70.76,0,0,1,7.54-3.89c1.23-.47,3.52-.46,4.19.32,1.53,1.75.09,3.29-1.51,4.44-5.54,3.95-11,8-16.66,11.8a19.33,19.33,0,0,1-6.23,2.53c-7.46,1.77-12.89-2-15.3-9.27a18,18,0,0,1,1.33-15.06,124.06,124.06,0,0,1,6.52-11.16c.56-.81,2.7-.55,4.11-.78.11,1.25.69,2.72.23,3.71a60.51,60.51,0,0,1-4.14,7C423.58,185.48,423.06,187.74,425.2,191.19Z" fill="#0d000d"/><path d="M405.53,211.46c2.53-3.68,9.2-4.13,13.51-.91A8.18,8.18,0,0,1,420.77,221c-2.58,3.74-9.18,5.12-12.82,2.69S403.17,214.9,405.53,211.46Z" fill="#0d000d"/><path d="M168.52,446.41a26,26,0,0,0-3.59,1.08c-16.17,8.29-32.06,17.23-48.57,24.77-15,6.86-31.19,10.36-47.86,8.72-13.25-1.31-25.95-4.72-36.28-14-6.58-5.92-7.52-10.18-3.32-18,4.49-8.31,12.41-12.31,20.44-16.24C63.05,426,78,424.18,92.7,421.25c10.48-2.1,21-4,31.52-5.88,6.39-1.17,12.37-3.22,17-8,3.09-3.22,2.57-5.58-1.66-7a26.29,26.29,0,0,0-8-1.65c-11.35-.14-22.71-.15-34,.1-14.32.33-28.63,1.19-42.95,1.37-9.93.13-19.33-2.73-28.29-6.9-7-3.27-9.21-8.11-6.75-15.61,3.36-10.21,9.73-18.09,19.8-22.2a112.57,112.57,0,0,1,36.48-7.83c8.38-.47,16.77-.86,25.16-1.08,11.58-.31,23.17-.42,34.76-.65a15.11,15.11,0,0,0,2.65-.46c-4.28-4.45-8.92-8.43-12.51-13.21-4.38-5.85-3.32-10.86,2.65-15.27a38,38,0,0,1,9.58-5.13A160.32,160.32,0,0,1,216,304.12c8.28,1.19,16.26,3.67,23.25,9.05,5.33,4.09,8,9.82,11.52,15,4.82,7.14,9.21,14.58,13.79,21.89.12.2.27.37.37.57,9.5,19,15.7,38.92,15.19,60.23a32.91,32.91,0,0,1-11.65,23.94c-9.43,8.17-19.1,16.23-29.44,23.18a164.75,164.75,0,0,1-45.58,21.25c-9.51,2.8-18.4-.5-23.55-7.86-3-4.28-2.9-9-2.54-13.75C167.66,454.15,168.09,450.66,168.52,446.41Zm101.15-72.17c-.85-2.35-1.74-4.69-2.55-7.06-4.47-13.11-11.78-24.51-20.89-34.85-2.09-2.36-4.79-4.89-5.39-7.73-1.61-7.56-6.88-11.24-13.24-13.26a121.2,121.2,0,0,0-22.54-5c-18.54-2.14-36.79.48-54.77,5a100.4,100.4,0,0,0-14.82,5.16c-9,3.85-10.6,10.23-3.65,16.87a49.89,49.89,0,0,0,14.82,9.35c13.66,5.83,27.88,9.79,42.91,10.06,1.85,0,4,.17,3.92,2.71s-2,3.36-4.28,3.34a20.56,20.56,0,0,1-4-.55c-6.46-1.36-12.87-2.93-19.35-4.13-8.71-1.61-17.44-3.79-26.23-4.19-14.07-.65-28.2-.12-42.31.08-14.54.21-29.11.45-43.36,3.94-12.47,3.05-23.84,7.55-29.56,20.53-4.1,9.29-2.56,13,6.87,16.66,19.39,7.5,39.58,5.54,59.34,3.89a321.5,321.5,0,0,1,47-.58,18.24,18.24,0,0,1,6.46,1.92c4.47,2.12,5.82,5.78,3.47,10-1.29,2.34-3,4.85-5.25,6.14-4.24,2.49-8.79,5.09-13.53,6C112.37,421.77,96,424.33,79.59,427a125.32,125.32,0,0,0-36.15,12c-4.5,2.27-8.68,4.95-11.27,9.56-3.67,6.52-3.42,11.38,2.58,15.59,5.7,4,12,7.84,18.56,9.75,20.94,6.06,41.51,3.52,61.17-5.57,11.13-5.14,21.94-11,32.92-16.44a147,147,0,0,0,26.43-16.81,112.83,112.83,0,0,1,15.92-10.45c2.65-1.46,6.05-1.74,9.16-2.08a3.62,3.62,0,0,1,2.82,2.2A3.83,3.83,0,0,1,200,428a79.27,79.27,0,0,1-9,3.14c-12,3.83-19.48,11.35-19.93,24.57,0,.91-.23,1.81-.27,2.72-.56,10.28,4.73,16.61,14.94,17.21a25.64,25.64,0,0,0,10-1.5c16.11-5.78,31.71-12.75,45.61-22.84a218,218,0,0,0,24.2-19.88c7-6.82,11-15.67,10.34-25.81A114.14,114.14,0,0,0,269.67,374.24Z" fill="#0d000d"/><path d="M318.11,390c-13.47,4.55-24.17-.14-30.14-13.17a46.89,46.89,0,0,0-3.07-6.09c-5-7.71-5.41-16.28-4.72-25,.19-2.4.81-5.24,2.29-7,7.15-8.3,15.75-14.51,27-15.68,10.53-1.09,19.27,4,23.46,13.73a53,53,0,0,1,3.11,11.12c.89,4.68,1.16,9.48,1.94,14.19,1.88,11.36-3.49,21.27-14.15,25.73C322,388.62,320,389.26,318.11,390Zm-13-62.06c-7.55,2.09-12.95,6.65-17.74,11.83-1.54,1.66-2.14,4.45-2.57,6.83-1.58,8.71,1.22,16.4,5.27,24.07,8.53,16.16,15.5,19.05,32.23,12.36a18.72,18.72,0,0,0,11.19-20.32c-.91-5.11-1.4-10.3-2.38-15.39C328.2,332.32,319.39,323.45,305.08,327.91Z" fill="#0d000d"/><path d="M197.68,406.29c.18-2.3,2.12-3.88,3.93-5.15a59.45,59.45,0,0,0,5.53-3.72c-5.27.24-9.79,2.53-14.37,4.76a76.23,76.23,0,0,1-10.58,4.63c-4.9,1.53-10-.09-11-2.92-.84-2.46,2.05-6.15,6.76-8.42,1.83-.88,3.81-1.48,5.7-2.25s3.57-1.55,5.36-2.32l-.21-1.44c-3.23.06-6.47.37-9.68.13a47.64,47.64,0,0,1-10.58-1.75c-1.65-.51-3.72-2.51-3.9-4s1.69-3.42,3.14-4.54c3.54-2.77,7.75-3.57,12.23-3.13a37.37,37.37,0,0,0,7.38-.43,3.09,3.09,0,0,0,1.69-.55,1.18,1.18,0,0,0,.3-1.59c-1.14-.13-3.52-.07-3.57-1.79A2.07,2.07,0,0,1,187,370a6.22,6.22,0,0,1,2.09-.6c1.11-.17,2.23-.34,3.36-.42a21.34,21.34,0,0,1,10.87,2.23,30.66,30.66,0,0,1,4.78,3.28c3.55,2.69,7.14,2.87,8.71,7.77a24.79,24.79,0,0,1,.78,8.29,9.46,9.46,0,0,1-.43,3.05c-.6,1.62-1.89,2.84-2.48,4.46a31.9,31.9,0,0,1-1.56,4.34c-2.55,4.8-9.23,7.63-14.37,5.89a1.63,1.63,0,0,1-.78-.46,1.49,1.49,0,0,1-.24-.77A4.3,4.3,0,0,1,197.68,406.29Z" fill="#0d000d"/><path d="M218.89,384.42c1,1.38,3,1.61,4.72,1.73l2.91.19c5.25.36,6.64-9.87,1.06-11.07-2-.44-5.57,0-7.26,1.26C218.44,378,217.37,382.4,218.89,384.42Z" fill="#0d000d"/><path d="M497.6,407.42c-1,4.9,1.2,7.74,3.67,9.9a156.9,156.9,0,0,0,15.57,12.12c12.65,8.49,25.7,16.41,38.24,25.07A116.64,116.64,0,0,1,571,468.3c5.78,5.79,11,12.16,16.47,18.23,7.45,8.21,12.37,18,17.07,27.83,5.81,12.18-.7,23.37-8.78,30.32-2.24,1.92-6.53,2.68-9.57,2.16a51.64,51.64,0,0,1-16.06-5.11c-12.66-6.92-23.15-16.63-32.8-27.34a156.9,156.9,0,0,0-15.76-15.07c-3.59-3-7.94-5.15-13.38-4.86-1.31,6.64,1.53,12.22,3.56,17.85,1,2.73,2.82,5.18,4.38,7.68q16.23,26.07,32.5,52.1a27.84,27.84,0,0,1,1.88,3.64c4.11,9.51-.47,16.53-10.71,16.34-9.78-.17-17.73-5-23.84-11.81-10.32-11.46-19.61-23.85-29.43-35.77q-16-19.49-32.23-38.84c-3.05-3.67-6.22-7.25-9.35-10.86a29.37,29.37,0,0,0-15.1-9.28c-1.35,7.92,1.69,14,5.51,20a131,131,0,0,1,7.48,13.66c2.1,4.42.78,8.62-2.53,11.88a10,10,0,0,1-11.44,2.07c-4.94-2.21-10.05-4.54-14.22-7.9-15.66-12.62-28.54-27.9-41.14-43.53a192,192,0,0,1-19.72-30.15c-5.94-11.08-5.3-22,1.62-32.26,4.17-6.21,9.14-11.88,13.51-18s8.67-12.24,12.57-18.63a92.92,92.92,0,0,1,22.86-26c13-10,27.66-14.88,44-12.94A137.1,137.1,0,0,1,471.69,349c16.3,4.94,32.67,9.67,48.05,17.26,9.37,4.63,17,11.28,24.24,18.61,4.26,4.34,5.29,10,4.7,15.84-.66,6.44-3.58,9.25-10,10a90.36,90.36,0,0,1-31.17-2A91.44,91.44,0,0,0,497.6,407.42ZM424,479.55c3.31.53,6.11.25,8,1.42,5.57,3.44,11.59,6.71,16,11.38,20.19,21.37,37,45.5,55.15,68.56a223.7,223.7,0,0,0,16.87,19.61c5.58,5.61,12.65,9,20.89,8.65,5.2-.19,7.54-2.89,6.6-8A23.63,23.63,0,0,0,544.4,573c-10.61-17-19.67-34.85-32-50.78-5.91-7.66-8.84-16.92-9.41-26.68-.33-5.58,2.12-7.45,7.56-6.17A28.26,28.26,0,0,1,515,491c7.73,3.32,13.54,9,19.2,15,8,8.44,15.93,16.87,24.24,25a49.12,49.12,0,0,0,25.14,13c4.23.84,8.23.4,11.35-3,6.8-7.31,10.21-15.48,5.45-26.11a118.09,118.09,0,0,0-18.78-29.09c-10.3-11.94-21.25-23.08-34.63-31.66q-19.8-12.7-39.32-25.85c-5.62-3.8-11.48-7.57-14.67-13.95-1.4-2.81-3.45-5.91-1.35-9,2.21-3.25,6-2.64,9.39-2.44a19.43,19.43,0,0,1,3.32.76c2.43.61,4.85,1.27,7.29,1.84,8,1.85,16.16,2.78,24.37,1.6,7.05-1,8.75-3.44,8.46-10.62-.18-4.38-2.23-7.67-5.18-10.76-10.15-10.65-22.65-17.68-36.33-22.3-15.27-5.16-31-9.11-46.37-13.85-12.89-4-25.18-2.13-37.22,3.08-12.48,5.41-22.13,14.44-29.72,25.38-4.41,6.34-10.7,12-10.73,20.77,0,.55-.67,1.16-1.14,1.63-4.17,4.16-8.33,8.34-12.57,12.43-6.71,6.47-14.72,22.18-9,33.64,3.66,7.31,6.8,15.09,11.65,21.55,9.55,12.7,19.82,24.91,30.42,36.76,6.18,6.89,13.41,12.91,20.55,18.86a32.87,32.87,0,0,0,10.74,5.71c5.92,1.92,9.78-1.68,9.12-7.9-.55-5.18-3-9.4-6.39-13.3C425.55,500.36,423.66,491,424,479.55Z" fill="#0d000d"/><path d="M365,326.45c14.77,13.34,13.24,36.56-2.93,48.44-10.45,7.68-21.38,12.18-34.84,10.6-13.8-1.61-26.88-19-22.82-31.77,1.23-3.88,1.51-8.11,3.08-11.81,2.33-5.44,7.2-8.63,12.22-11.46a38.31,38.31,0,0,0,6.38-3.87C339.23,315.26,352.52,315.16,365,326.45Zm-2.85,4c-1.07-.83-2.29-1.84-3.58-2.78-10.58-7.74-22.53-5.92-30.29,4.64-1.66,2.26-3.29,4-6.57,4-1.77,0-3.68,1.53-5.27,2.72-4.26,3.2-5.54,8.06-7,12.88-5.33,16.93,10.4,31.58,25.48,29.77,11.95-1.44,22-6.66,29.24-15.75C373.51,354.13,373.75,340.84,362.17,330.44Z" fill="#0d000d"/><path d="M433.74,422.13c.05-.1.09-.19.13-.29a11.17,11.17,0,0,1,1.67-2.75c2.17-2.4,4.52-4.81,6.85-7.07a8.9,8.9,0,0,1,5.55-2.76c6-.45,11.9-.37,17.27,2.54,1.23.67,2.55,2.95,2.31,4.18-.46,2.28-2.66,1.86-4.49,1.2a35,35,0,0,0-3.45-1.31,4.31,4.31,0,0,1-1.21-.41c-.44-.23-.51-.58-1.1-.69a6.58,6.58,0,0,0-2.86-.07,2.37,2.37,0,0,0-1.85,2,2.4,2.4,0,0,0,1,1.93,8.47,8.47,0,0,0,2,1.05,32.38,32.38,0,0,1,4.79,2.28,43.18,43.18,0,0,1,5.27,4.86q4.67,4.49,9,9.26a97.26,97.26,0,0,1,8.26,9.91c1.25,1.82,1.44,4.37,2.19,6.83-5.58,1.31-7.9-2.12-10.68-4.64l-9.26-8.36-4.83-4.34c-1.15-1-2.28-2.77-3.71-3.38a2.33,2.33,0,0,0-2.52.36,2.44,2.44,0,0,0-.57,1.9c.24,2.67,2.92,4.88,4.52,6.85l5.62,6.93a12.25,12.25,0,0,1,1.52,2.26c1,2.06,2.24,4.36-.23,6.08-2.07,1.45-3.92.17-5.34-1.47q-6-7-11.85-14c-.91-1.1-1.58-2.4-2.5-3.48a9.71,9.71,0,0,1-2.17-3c-.6-1.61-1.95-2.33-2.44-3.94-.3-1-.34-2-.55-3a2.47,2.47,0,0,0-.58-1.28,1.06,1.06,0,0,0-1.29-.23c-.76,3.61,1.95,7.35,3.79,10.17a8.23,8.23,0,0,1,1.15,6,2.16,2.16,0,0,1-.35.89c-1.17,1.48-5-.4-6.09-1.38-1.77-1.65-2.68-4.21-3.65-6.36C431.25,431.31,432,426,433.74,422.13Z" fill="#0d000d"/><path d="M428,407.87a8.24,8.24,0,0,0-.6,4.61,4.79,4.79,0,0,0,.61,2.08c.76,1.21,2.25,1.69,3.63,2a5.46,5.46,0,0,0,3.76,0,4.34,4.34,0,0,0,1.24-1,4.64,4.64,0,0,0,1.33-2.77,6.15,6.15,0,0,0-1.28-3.4l-1.26-2c-.89-1.42-2-2.91-3.86-2.37A6.09,6.09,0,0,0,428,407.87Z" fill="#0d000d"/></svg>