<svg xmlns="http://www.w3.org/2000/svg" width="351.11" height="989.97" viewBox="0 0 351.11 989.97"><path d="M241.24,767.14c-6.06,3.14-7.16,7.93-7.32,12.4a211.82,211.82,0,0,0,.56,26.9c1.88,20.71,4.71,41.33,6.34,62,.74,9.51.09,19.22-.9,28.74-1.16,11.1-3.45,22.08-5.14,33.12-2.28,14.94-8.37,28.53-14.78,42-7.91,16.62-25.36,19.35-39.67,16.77-4-.72-8.45-4.61-10.52-8.28-3.74-6.63-7-14-8.39-21.39-3.56-19.36-2.31-38.82.74-58.25a211.69,211.69,0,0,0,2.41-29.65c.09-6.38-1.38-12.83-6.37-18.34-8.15,4.33-11.62,12.12-15.83,19.11-2.05,3.4-3.06,7.44-4.37,11.25q-13.64,39.6-27.22,79.22a38.73,38.73,0,0,1-2.24,5.12C102,980.45,90.64,981.64,82,970.63c-8.23-10.51-9.93-23.08-8-35.39,3.27-20.79,8.38-41.28,12.57-61.93,4.57-22.49,9-45,13.41-67.53,1.26-6.39,2.32-12.82,3.46-19.23a40.19,40.19,0,0,0-3.16-24c-9.55,5.39-13.39,13.84-16.49,23.07a173.69,173.69,0,0,1-8,19.67c-2.87,6-8.45,8.23-14.76,7.53a13.58,13.58,0,0,1-12-10.33c-1.91-7.13-3.84-14.55-3.87-21.85-.1-27.43,5-54.21,10.72-81a262.42,262.42,0,0,1,15-46.82c6.64-15.81,18.7-24.48,35.56-26,10.16-.93,20.44-.54,30.63-1.15s20.42-1.33,30.54-2.7c15.88-2.16,31.57-1.88,47.17,1.86,21.73,5.22,39.54,16.5,51.55,35.5a185.81,185.81,0,0,1,14.58,29.11c8.78,21.49,17.85,42.9,23,65.71,3.17,13.9,2.73,27.76,1.15,41.66-.93,8.25-6,14.18-12.74,18.6-7.38,4.85-12.87,4.17-19.19-2a123.47,123.47,0,0,1-24.69-34.72C246.48,774.68,243.71,771.07,241.24,767.14Z" fill="#ffa47f"/><path d="M284.64,414.81c2.79,4.4-.29,7.66-5.43,9.86-10.7,4.58-21.19,9.78-32.17,13.52-46.92,15.95-95.3,21.09-144.59,17.65a147.5,147.5,0,0,1-31-5.37c-20.7-6.06-34.32-21.38-45-39-13.21-21.74-22.36-45-22.78-71.12C3.5,328,1.11,315.68.49,303.3-.15,290.57,0,277.8.1,265.05c.1-11,6-19.33,13.74-26.22,10.73-9.59,25.67-5.69,29.65,8.16,4.34,15.14,7.12,30.72,10.73,46.08,2.4,10.21,4.38,20.6,7.88,30.44,2.16,6.08,6.82,11.27,10.2,16.61,7.3-1.25,8.9-6.09,10.91-10.42,4.94-10.64,5.05-22.18,3.91-33.27-1.68-16.39-5.16-32.6-8-48.87-2.38-13.68-5-27.32-7.36-41s-5-27.37-6.87-41.14c-6.46-47.45-4.27-94.5,7.38-141a107.94,107.94,0,0,1,3.47-10.72c6.72-18.45,23.69-16.14,31.7-5.4,11.47,15.38,21.71,32.08,22.33,52.1.87,28.16.9,56.36,1,84.54,0,12.58,1.69,24.79,6.51,36.39,5.49,13.23,16.83,16.11,28,7.13,14.54-11.66,22.93-27.64,30.05-44.35,9.2-21.56,14.24-44.3,18.73-67.2,1.95-10,4.3-19.83,6.68-29.69A34.67,34.67,0,0,1,224,38.82C230,28,240.79,26.9,248.88,36.33c7.4,8.62,10.77,19.08,11.22,30.14.78,19.12,1.84,38.34.8,57.42-2.26,41.63-6,83.19-8.66,124.8-1.44,22.09-3.51,44.32,3.84,65.94.48,1.43.78,2.91,1.29,4.32,3.53,9.73,7.52,11,15.74,4.21,9-7.4,14.35-17.54,17.8-28.28,4.58-14.27,7.77-29,11.69-43.47,1.77-6.52,3.41-13.13,5.92-19.37,1.65-4.08,4.44-7.82,7.25-11.28,5-6.17,11.64-8,19.26-5.61,7.28,2.32,10.6,7.95,12,15a13.93,13.93,0,0,1,.22,2.24c1.21,29.64,2,59.29,3.73,88.9,1.72,29.85-12.45,52-33.48,70.55C308,400.23,296.72,406.49,284.64,414.81Z" fill="#fd4796"/><path d="M196.2,565.39c-4.7,2.21-9.24,4.84-14.08,6.65-25,9.33-60.49-13.87-62.84-44.14-7.07,11.76-8.32,28.94-1.3,40,9.9,15.6,24.06,23.31,41.19,27.77,26.47,6.9,52.38-11.44,53.8-38.57a57.3,57.3,0,0,0-.09-7.56A34.42,34.42,0,0,1,196.2,565.39Z" fill="#ffa47f"/><path d="M200.44,489.53c-3.66-3.23-7.66-6.08-11.21-9.42-5.92-5.57-12.9-7.41-18.64-6.82-26.55,1.19-46.29,19.9-50.76,43.91a40.83,40.83,0,0,0-.55,10.7c3.15-5.25,7.46-9.42,12.71-11.48s9.88-5.38,15.16-6.89c7.76-2.22,15.32.2,22.64,3.08,3.16,1.24,6.29,2.83,9.59,3.42,20.59,3.68,32,15.06,33.5,33.52a32.85,32.85,0,0,0,2.44-6.66C220.35,522.62,216.91,504.08,200.44,489.53Z" fill="#fd4796"/><path d="M179.38,516c-3.3-.59-6.43-2.18-9.59-3.42-7.32-2.88-14.88-5.3-22.64-3.08-5.28,1.51-10,4.86-15.16,6.89s-9.56,6.23-12.71,11.48c2.35,30.27,37.87,53.47,62.84,44.14,4.84-1.81,9.38-4.44,14.08-6.65a34.42,34.42,0,0,0,16.68-15.84C211.36,531.09,200,519.71,179.38,516Z" fill="#ff6558"/><path d="M188.66,320.14l15.25-26.93c6.45,2.83,6.23,7.63,4.08,11.6a240.31,240.31,0,0,1-17,27.68c-2.23,3.06-7.49,5.24-11.46,5.39a78.67,78.67,0,0,1-21-2.34c-4.57-1.08-10.18-3-12.68-6.5-6.07-8.41-10.7-17.88-15.64-27.07-.71-1.32.05-3.42.15-5.65,9.42.35,6.94,9,10.32,13s6.51,8.64,9.73,13l2.29-1.15a49.29,49.29,0,0,0-1.07-6.81c-4.46-15.12-9.15-30.16-13.56-45.29-3.14-10.78-2.4-17.22,2.68-27.28,5.75-.46,7.47,3.62,8.59,8.14,1.81,7.27,3.21,14.66,5.21,21.88a72.39,72.39,0,0,0,5.45,14.7c3.27,6.09,8.64,6.32,12.09.3,2.53-4.41,3.58-9.73,4.89-14.76,1.6-6.15,2.53-12.49,4.3-18.59.5-1.69,3.66-4.25,4.4-3.9,2,1,4.4,3.08,4.74,5.07.55,3.18-.34,6.64-.78,10-2.4,18.11-5.92,36.15-3.52,54.54Z"/><path d="M177.35,359.46c.31,5-1.83,7.42-6.41,7.7-7.85.46-15.84-6.4-16.22-14-.29-5.69,3.76-10.62,8.95-10.91C170.72,341.9,177.17,350.2,177.35,359.46Z"/><path d="M170.76,712.17l.41-.11a15,15,0,0,1,4.35-.6c4.41.24,9,.65,13.38,1.17a12.18,12.18,0,0,1,7.7,3.51c5.61,5.93,10.61,12.28,12.15,20.47.36,1.88-.92,5.24-2.43,6-2.82,1.48-4.27-1.21-5.13-3.71a49.76,49.76,0,0,0-1.59-4.79,6.23,6.23,0,0,1-.6-1.63c-.13-.66.18-1-.22-1.76a9.09,9.09,0,0,0-2.38-3.09,3.24,3.24,0,0,0-3.67-.27,3.31,3.31,0,0,0-1.2,2.7,11.39,11.39,0,0,0,.58,3,42.34,42.34,0,0,1,1.7,7c.29,3.13-.34,6.63-.6,9.76-.5,5.86-1.16,11.72-2.05,17.53a131.62,131.62,0,0,1-3.38,17.26c-.85,2.89-3.39,5.29-5.35,8.19-6.19-4.78-4.55-10.18-4.28-15.29.3-5.66.61-11.33.9-17q.22-4.42.44-8.85c.1-2.1,1-4.8.38-6.83a3.14,3.14,0,0,0-2.55-2.35,3.26,3.26,0,0,0-2.5,1c-2.62,2.55-2.65,7.29-3.36,10.68q-1.25,6-2.51,11.91a17.34,17.34,0,0,1-1.08,3.55c-1.29,2.87-2.69,6.12-6.64,5-3.31-.94-3.55-4-3-6.92q2.22-12.32,4.63-24.59c.38-1.91,1.18-3.74,1.53-5.64s.39-3.29,1.35-4.91c1.19-2,.79-4.07,2.08-6,.78-1.15,1.84-2.08,2.72-3.17a3.42,3.42,0,0,0,.85-1.71,1.44,1.44,0,0,0-.87-1.56c-4.47,2.3-6.1,8.39-7.51,12.76a11.18,11.18,0,0,1-5.34,6.35,2.79,2.79,0,0,1-1.24.4c-2.58,0-3.9-5.67-3.77-7.63.22-3.29,2.15-6.47,3.59-9.34C158.89,717.42,165.14,713.7,170.76,712.17Z"/><path d="M180.89,693.8a11.2,11.2,0,0,0-5.4,3.32,6.68,6.68,0,0,0-1.68,2.44c-.62,1.84.16,3.83,1,5.6.73,1.58,1.61,3.27,3.2,4a5.67,5.67,0,0,0,2.15.45,6.29,6.29,0,0,0,4.08-1c1.34-1,1.95-2.68,2.49-4.27l1.05-3.07c.73-2.15,1.32-4.65-.81-6.12A8.24,8.24,0,0,0,180.89,693.8Z"/></svg>