<svg xmlns="http://www.w3.org/2000/svg" width="566.47" height="611.57" viewBox="0 0 566.47 611.57"><path d="M390.82,475.79c-48,85.86-143.68,144.71-240.48,130.2-26.67-4-48-15.76-70.82-28.71-75.92-43-81-113.77-73.71-187,3.94-39.55,18.07-78.35,30-116.75C44.39,245.9,66,228,91.87,216.65c64.25-28.19,130.69-31.85,198.37-14.74,8.19,2.08,17.54,5.35,23.07,11.19,33.52,35.32,67.44,70.42,98.39,107.94,16.12,19.53,18.87,45.1,10.2,70C412,419.43,401.22,447.55,390.82,475.79Z" fill="none" stroke="#ff77f9" stroke-miterlimit="10" stroke-width="6.76"/><path d="M240.64,88.07c32.92,1,65.26,10.13,96.1,21.13,23.6,8.43,45.74,22.43,66.64,36.67,67.38,45.9,88.25,114.78,87.29,191.42-.17,13.09-2.29,26.2-5.19,39.27,47.18-37.07,81.46-81.59,81-146.12-2.36-11.61-3.81-23.5-7.22-34.8C516.69,54.6,379.89-16,246.38,3.08c-39.29,5.63-69.11,27.71-93.3,56-18.4,21.49-28.21,47-26.21,76.32a167.09,167.09,0,0,1,36.54-29.1C186.92,92.72,213.66,87.22,240.64,88.07Z" fill="#a992ff"/><path d="M485.48,376.56l-1.5,1.17c-14.53,11.31-29.42,23-46,30.6a86.08,86.08,0,0,1-41.94,7,362,362,0,0,1-132.71-38.79C226.76,357.82,202.29,326,180.9,292.4c-28.09-44.08-43.47-93.08-52.52-144.67a117.63,117.63,0,0,1-1.51-12.36,270.06,270.06,0,0,0-27.4,34C94.18,177,90,185.48,84.74,193q-4.5,6.31-8.58,12.92-5.39,8.7-10,17.84C55.38,245.15,48,268.45,45.83,292.41,40.72,350,56.8,401.76,91.65,450.92c51.78,73,224.48,105.41,291.48,65.65,7.23-4.28,14.43-9,20.62-14.58,18.78-17.06,37.81-33.95,55.15-52.41,7.36-7.85,12.88-18.9,15.5-29.43C478,405.72,482.23,391.17,485.48,376.56Z" fill="#f9e800"/><path d="M180.9,292.4c21.39,33.56,45.86,65.42,82.48,84.15a362,362,0,0,0,132.71,38.79,86.08,86.08,0,0,0,41.94-7c16.53-7.59,31.42-19.29,46-30.6l1.5-1.17c2.9-13.07,5-26.18,5.19-39.27,1-76.64-19.91-145.52-87.29-191.42-20.9-14.24-43-28.24-66.64-36.67-30.84-11-63.18-20.1-96.1-21.13-27-.85-53.72,4.65-77.23,18.2a167.09,167.09,0,0,0-36.54,29.1,117.63,117.63,0,0,0,1.51,12.36C137.43,199.32,152.81,248.32,180.9,292.4Z" fill="#fb90c8"/></svg>